Grade 1 UC .ufo
<glyph name="plus" format="2">
  <advance width="1044"/>
  <unicode hex="002B"/>
  <outline>
    <contour>
      <point x="74.118" y="533.856" type="line"/>
      <point x="74.118" y="730.144" type="line"/>
      <point x="970.296" y="730.144" type="line"/>
      <point x="970.296" y="533.856" type="line"/>
    </contour>
    <contour>
      <point x="412.97" y="186.852" type="line"/>
      <point x="412.97" y="1077.148" type="line"/>
      <point x="631.444" y="1077.148" type="line"/>
      <point x="631.444" y="186.852" type="line"/>
    </contour>
  </outline>
</glyph>
<glyph name="hyphen" format="2">
  <advance width="769"/>
  <unicode hex="002D"/>
  <outline>
    <contour>
      <point x="73.08" y="534.548" type="line"/>
      <point x="73.08" y="746.752" type="line"/>
      <point x="384.878" y="742.752" type="line"/>
      <point x="696.022" y="746.752" type="line"/>
      <point x="696.022" y="534.548" type="line"/>
      <point x="384.878" y="538.548" type="line"/>
    </contour>
  </outline>
</glyph>
<glyph name="zero" format="2">
  <advance width="1284"/>
  <unicode hex="0030"/>
  <outline>
    <contour>
      <point x="69.156" y="748.422" type="qcurve" smooth="yes"/>
      <point x="69.156" y="1102.764"/>
      <point x="398.908" y="1521.73"/>
      <point x="643.668" y="1521.73" type="qcurve" smooth="yes"/>
      <point x="892.736" y="1521.73"/>
      <point x="1215.142" y="1108.418"/>
      <point x="1215.142" y="754.692" type="qcurve" smooth="yes"/>
      <point x="1215.142" y="419.198"/>
      <point x="898.428" y="-23.384"/>
      <point x="649.014" y="-23.384" type="qcurve" smooth="yes"/>
      <point x="397.984" y="-23.384"/>
      <point x="69.156" y="390.004"/>
    </contour>
    <contour>
      <point x="366.26" y="770.616" type="qcurve" smooth="yes"/>
      <point x="367.26" y="443.632"/>
      <point x="511.96799999999996" y="97.92"/>
      <point x="641.322" y="97.92" type="qcurve" smooth="yes"/>
      <point x="779.216" y="97.92"/>
      <point x="916.384" y="411.708"/>
      <point x="918.038" y="748.076" type="qcurve" smooth="yes"/>
      <point x="919.692" y="1068.174"/>
      <point x="772.216" y="1384.464"/>
      <point x="643.284" y="1384.464" type="qcurve" smooth="yes"/>
      <point x="505.812" y="1384.464"/>
      <point x="365.606" y="1096.33"/>
    </contour>
  </outline>
</glyph>
<glyph name="one" format="2">
  <advance width="917"/>
  <unicode hex="0031"/>
  <outline>
    <contour>
      <point x="70.506" y="0.0" type="line"/>
      <point x="70.506" y="104.38" type="line"/>
      <point x="325.046" y="139.38" type="line"/>
      <point x="325.046" y="754.0" type="line"/>
      <point x="323.046" y="1339.198" type="line"/>
      <point x="68.506" y="1373.198" type="line"/>
      <point x="68.506" y="1487.578" type="line"/>
      <point x="583.69" y="1510.578" type="line"/>
      <point x="615.69" y="1475.578" type="line"/>
      <point x="609.69" y="754.0" type="line"/>
      <point x="609.69" y="139.38" type="line"/>
      <point x="864.23" y="104.38" type="line"/>
      <point x="864.23" y="0.0" type="line"/>
    </contour>
  </outline>
</glyph>
<glyph name="eight" format="2">
  <advance width="1183"/>
  <unicode hex="0038"/>
  <outline>
    <contour>
      <point x="46.152" y="387.502" type="qcurve" smooth="yes"/>
      <point x="46.152" y="574.658"/>
      <point x="313.49" y="796.62"/>
      <point x="474.896" y="844.08" type="qcurve"/>
      <point x="554.778" y="783.734" type="line"/>
      <point x="443.77" y="728.274"/>
      <point x="285.53" y="542.468"/>
      <point x="285.53" y="390.354" type="qcurve" smooth="yes"/>
      <point x="285.53" y="256.852"/>
      <point x="449.082" y="91.844"/>
      <point x="594.208" y="91.844" type="qcurve" smooth="yes"/>
      <point x="716.254" y="91.844"/>
      <point x="877.574" y="240.65800000000002"/>
      <point x="877.574" y="372.7" type="qcurve" smooth="yes"/>
      <point x="877.574" y="485.472"/>
      <point x="730.722" y="623.126"/>
      <point x="541.182" y="706.704" type="qcurve" smooth="yes"/>
      <point x="315.072" y="803.78"/>
      <point x="142.38" y="999.084"/>
      <point x="143.764" y="1157.35" type="qcurve" smooth="yes"/>
      <point x="145.148" y="1323.426"/>
      <point x="417.03" y="1528.27"/>
      <point x="610.976" y="1528.27" type="qcurve" smooth="yes"/>
      <point x="807.5" y="1528.27"/>
      <point x="1038.454" y="1351.73"/>
      <point x="1038.454" y="1214.232" type="qcurve" smooth="yes"/>
      <point x="1038.454" y="1081.848"/>
      <point x="857.85" y="884.156"/>
      <point x="701.8199999999999" y="807.346" type="qcurve"/>
      <point x="604.364" y="864.27" type="line"/>
      <point x="706.908" y="929.886"/>
      <point x="818.836" y="1084.574"/>
      <point x="818.836" y="1194.92" type="qcurve" smooth="yes"/>
      <point x="818.836" y="1294.076"/>
      <point x="699.52" y="1410.312"/>
      <point x="603.938" y="1410.312" type="qcurve" smooth="yes"/>
      <point x="508.47" y="1410.312"/>
      <point x="372.45799999999997" y="1290.996"/>
      <point x="372.45799999999997" y="1199.456" type="qcurve" smooth="yes"/>
      <point x="372.45799999999997" y="1104.726"/>
      <point x="501.614" y="980.726"/>
      <point x="712.036" y="896.608" type="qcurve" smooth="yes"/>
      <point x="923.34" y="812.414"/>
      <point x="1143.336" y="598.802"/>
      <point x="1143.336" y="421.228" type="qcurve" smooth="yes"/>
      <point x="1143.336" y="231.962"/>
      <point x="849.69" y="-23.384"/>
      <point x="594.17" y="-23.384" type="qcurve" smooth="yes"/>
      <point x="326.03" y="-23.384"/>
      <point x="46.152" y="219.696"/>
    </contour>
  </outline>
</glyph>
<glyph name="semicolon" format="2">
  <advance width="688"/>
  <unicode hex="003B"/>
  <outline>
    <contour>
      <point x="161.316" y="-236.304" type="line"/>
      <point x="210.312" y="-204.228"/>
      <point x="329.882" y="-82.422"/>
      <point x="353.878" y="-5.388000000000001" type="qcurve"/>
      <point x="259.004" y="-5.388000000000001"/>
      <point x="164.126" y="86.22"/>
      <point x="164.126" y="155.6" type="qcurve" smooth="yes"/>
      <point x="164.126" y="223.634"/>
      <point x="263.464" y="325.896"/>
      <point x="341.342" y="325.896" type="qcurve" smooth="yes"/>
      <point x="415.22" y="325.896"/>
      <point x="518.558" y="234.672"/>
      <point x="518.558" y="142.448" type="qcurve" smooth="yes"/>
      <point x="518.558" y="7.299999999999997"/>
      <point x="328.266" y="-234.262"/>
      <point x="209.852" y="-293.954" type="qcurve"/>
    </contour>
    <contour>
      <point x="164.818" y="876.354" type="qcurve" smooth="yes"/>
      <point x="164.818" y="947.156"/>
      <point x="265.54" y="1051.494"/>
      <point x="343.764" y="1051.494" type="qcurve" smooth="yes"/>
      <point x="421.988" y="1051.494"/>
      <point x="523.056" y="947.156"/>
      <point x="523.056" y="876.354" type="qcurve" smooth="yes"/>
      <point x="523.056" y="807.244"/>
      <point x="421.988" y="702.56"/>
      <point x="343.764" y="702.56" type="qcurve" smooth="yes"/>
      <point x="265.54" y="702.56"/>
      <point x="164.818" y="807.244"/>
    </contour>
  </outline>
</glyph>
<glyph name="equal" format="2">
  <advance width="1044"/>
  <unicode hex="003D"/>
  <outline>
    <contour>
      <point x="105.502" y="306.666" type="line"/>
      <point x="105.502" y="518.802" type="line"/>
      <point x="520.726" y="514.802" type="line"/>
      <point x="938.912" y="518.802" type="line"/>
      <point x="938.912" y="306.666" type="line"/>
      <point x="520.726" y="310.666" type="line"/>
    </contour>
    <contour>
      <point x="105.502" y="726.658" type="line"/>
      <point x="105.502" y="938.794" type="line"/>
      <point x="520.726" y="934.794" type="line"/>
      <point x="938.912" y="938.794" type="line"/>
      <point x="938.912" y="726.658" type="line"/>
      <point x="520.726" y="730.658" type="line"/>
    </contour>
  </outline>
</glyph>
<glyph name="at" format="2">
  <advance width="1731"/>
  <unicode hex="0040"/>
  <outline>
    <contour>
      <point x="79.654" y="721.194" type="qcurve" smooth="yes"/>
      <point x="79.654" y="1075.646"/>
      <point x="530.414" y="1519.654"/>
      <point x="877.806" y="1519.654" type="qcurve" smooth="yes"/>
      <point x="1217.114" y="1519.654"/>
      <point x="1655.46" y="1149.042"/>
      <point x="1655.46" y="850.198" type="qcurve" smooth="yes"/>
      <point x="1655.46" y="617.198"/>
      <point x="1404.308" y="346.232"/>
      <point x="1245.738" y="346.232" type="qcurve" smooth="yes"/>
      <point x="1170.738" y="346.232"/>
      <point x="1059.582" y="395.156"/>
      <point x="1036.16" y="450.62" type="qcurve"/>
      <point x="992.236" y="395.156"/>
      <point x="833.574" y="320.806"/>
      <point x="745.072" y="320.806" type="qcurve" smooth="yes"/>
      <point x="627.46" y="320.806"/>
      <point x="486.616" y="446.772"/>
      <point x="486.616" y="546.422" type="qcurve" smooth="yes"/>
      <point x="486.616" y="666.498"/>
      <point x="760.506" y="828.194"/>
      <point x="1043.236" y="869.806" type="qcurve"/>
      <point x="1051.236" y="786.384" type="line"/>
      <point x="882.612" y="759.232"/>
      <point x="691.7139999999999" y="662.848"/>
      <point x="691.7139999999999" y="561.346" type="qcurve" smooth="yes"/>
      <point x="691.7139999999999" y="508.152"/>
      <point x="766.874" y="446.342"/>
      <point x="822.144" y="446.342" type="qcurve" smooth="yes"/>
      <point x="876.38" y="446.342"/>
      <point x="989.468" y="508.426"/>
      <point x="1015.7" y="545.582" type="qcurve"/>
      <point x="1017.7" y="871.304" type="line" smooth="yes"/>
      <point x="1018.7" y="1004.464"/>
      <point x="924.89" y="1099.89"/>
      <point x="842.468" y="1099.89" type="qcurve" smooth="yes"/>
      <point x="777.426" y="1099.89"/>
      <point x="697.346" y="1064.772"/>
      <point x="668.076" y="1039.426" type="qcurve"/>
      <point x="687.076" y="1020.426"/>
      <point x="709.384" y="979.042"/>
      <point x="711.038" y="960.658" type="qcurve" smooth="yes"/>
      <point x="716.308" y="923.966"/>
      <point x="671.502" y="875.658"/>
      <point x="631.81" y="875.658" type="qcurve" smooth="yes"/>
      <point x="591.81" y="875.658"/>
      <point x="539.696" y="943.274"/>
      <point x="539.696" y="1001.274" type="qcurve" smooth="yes"/>
      <point x="539.696" y="1083.274"/>
      <point x="733.814" y="1207.118"/>
      <point x="869.27" y="1207.118" type="qcurve" smooth="yes"/>
      <point x="1027.996" y="1207.118"/>
      <point x="1204.106" y="1044.768"/>
      <point x="1206.106" y="865.418" type="qcurve" smooth="yes"/>
      <point x="1210.76" y="489.498" type="line" smooth="yes"/>
      <point x="1210.76" y="473.152"/>
      <point x="1228.144" y="462.768"/>
      <point x="1245.988" y="462.768" type="qcurve" smooth="yes"/>
      <point x="1367.92" y="462.768"/>
      <point x="1508.848" y="649.354"/>
      <point x="1508.848" y="833.434" type="qcurve" smooth="yes"/>
      <point x="1508.848" y="1079.198"/>
      <point x="1173.734" y="1377.426"/>
      <point x="879.536" y="1377.426" type="qcurve" smooth="yes"/>
      <point x="580.224" y="1377.426"/>
      <point x="233.19" y="1028.882"/>
      <point x="233.19" y="742.536" type="qcurve" smooth="yes"/>
      <point x="233.19" y="447.818"/>
      <point x="588.346" y="103.152"/>
      <point x="869.156" y="103.152" type="qcurve" smooth="yes"/>
      <point x="998.776" y="103.152"/>
      <point x="1175.738" y="161.616"/>
      <point x="1230.772" y="200.882" type="qcurve"/>
      <point x="1296.08" y="107.308" type="line"/>
      <point x="1235.004" y="51.81"/>
      <point x="1007.392" y="-27.924"/>
      <point x="861.388" y="-27.924" type="qcurve" smooth="yes"/>
      <point x="526.156" y="-27.924"/>
      <point x="79.654" y="373.742"/>
    </contour>
  </outline>
</glyph>
<glyph name="C" format="2">
  <advance width="1495"/>
  <unicode hex="0043"/>
  <outline>
    <contour>
      <point x="74.81" y="699.308" type="qcurve" smooth="yes"/>
      <point x="74.81" y="1055.072"/>
      <point x="496.688" y="1520.0"/>
      <point x="853.376" y="1520.0" type="qcurve" smooth="yes"/>
      <point x="987.182" y="1520.0"/>
      <point x="1174.84" y="1462.152"/>
      <point x="1229.186" y="1424.768" type="qcurve"/>
      <point x="1260.494" y="1500.0" type="line"/>
      <point x="1374.908" y="1500.0" type="line"/>
      <point x="1374.908" y="1021.658" type="line"/>
      <point x="1240.84" y="1021.658" type="line"/>
      <point x="1206.954" y="1179.278" type="line" smooth="yes"/>
      <point x="1185.608" y="1279.738"/>
      <point x="1029.908" y="1379.89"/>
      <point x="900.524" y="1379.89" type="qcurve" smooth="yes"/>
      <point x="663.162" y="1379.89"/>
      <point x="386.294" y="1069.304"/>
      <point x="387.602" y="740.0" type="qcurve" smooth="yes"/>
      <point x="388.90999999999997" y="427.468"/>
      <point x="663.85" y="130.954"/>
      <point x="898.208" y="130.954" type="qcurve" smooth="yes"/>
      <point x="1069.41" y="130.954"/>
      <point x="1297.376" y="251.954"/>
      <point x="1356.11" y="339.072" type="qcurve"/>
      <point x="1457.992" y="247.076" type="line"/>
      <point x="1362.296" y="113.114"/>
      <point x="1054.68" y="-28.962"/>
      <point x="852.346" y="-28.962" type="qcurve" smooth="yes"/>
      <point x="501.996" y="-28.962"/>
      <point x="74.81" y="372.73"/>
    </contour>
  </outline>
</glyph>
<glyph name="D" format="2">
  <advance width="1662"/>
  <unicode hex="0044"/>
  <outline>
    <contour>
      <point x="68.16" y="0.0" type="line"/>
      <point x="68.16" y="110.38" type="line"/>
      <point x="265.78" y="145.38" type="line"/>
      <point x="267.78" y="754.0" type="line"/>
      <point x="265.78" y="1341.62" type="line"/>
      <point x="68.16" y="1375.62" type="line"/>
      <point x="68.16" y="1500.0" type="line"/>
      <point x="759.174" y="1500.0" type="line" smooth="yes"/>
      <point x="1132.82" y="1500.692"/>
      <point x="1585.774" y="1119.0"/>
      <point x="1585.774" y="777.0" type="qcurve" smooth="yes"/>
      <point x="1585.774" y="410.0"/>
      <point x="1133.82" y="0.0"/>
      <point x="716.752" y="0.0" type="qcurve" smooth="yes"/>
    </contour>
    <contour>
      <point x="556.5" y="139.34199999999998" type="line"/>
      <point x="586.348" y="133.34199999999998"/>
      <point x="713.588" y="124.688"/>
      <point x="778.9" y="124.688" type="qcurve" smooth="yes"/>
      <point x="1004.3" y="124.688"/>
      <point x="1280.67" y="442.114"/>
      <point x="1282.67" y="758.232" type="qcurve" smooth="yes"/>
      <point x="1284.324" y="1049.696"/>
      <point x="994.684" y="1360.814"/>
      <point x="746.398" y="1360.814" type="qcurve" smooth="yes"/>
      <point x="703.318" y="1360.814"/>
      <point x="588.348" y="1348.814"/>
      <point x="556.846" y="1343.814" type="qcurve"/>
      <point x="554.5" y="751.578" type="line"/>
    </contour>
  </outline>
</glyph>
<glyph name="E" format="2">
  <advance width="1341"/>
  <unicode hex="0045"/>
  <outline>
    <contour>
      <point x="68.16" y="0.0" type="line"/>
      <point x="68.16" y="110.38" type="line"/>
      <point x="265.78" y="146.688" type="line"/>
      <point x="267.78" y="772.966" type="line"/>
      <point x="265.78" y="1341.62" type="line"/>
      <point x="68.16" y="1375.62" type="line"/>
      <point x="68.16" y="1500.0" type="line"/>
      <point x="1195.512" y="1500.0" type="line"/>
      <point x="1195.512" y="1147.502" type="line"/>
      <point x="1069.25" y="1147.502" type="line"/>
      <point x="1034.25" y="1368.16" type="line"/>
      <point x="594.188" y="1368.16" type="line"/>
      <point x="556.192" y="1346.776" type="line"/>
      <point x="554.192" y="783.0" type="line"/>
      <point x="556.192" y="149.646" type="line"/>
      <point x="592.766" y="125.3" type="line"/>
      <point x="1093.444" y="125.3" type="line"/>
      <point x="1168.06" y="385.958" type="line"/>
      <point x="1293.976" y="385.958" type="line"/>
      <point x="1254.668" y="0.0" type="line"/>
    </contour>
    <contour>
      <point x="412.14" y="731.08" type="line"/>
      <point x="412.14" y="840.92" type="line"/>
      <point x="913.854" y="850.92" type="line"/>
      <point x="946.086" y="1004.346" type="line"/>
      <point x="1067.85" y="1004.346" type="line"/>
      <point x="1067.85" y="565.232" type="line"/>
      <point x="946.086" y="565.232" type="line"/>
      <point x="913.854" y="721.08" type="line"/>
    </contour>
  </outline>
</glyph>
<glyph name="P" format="2">
  <advance width="1398"/>
  <unicode hex="0050"/>
  <outline>
    <contour>
      <point x="68.16" y="0.0" type="line"/>
      <point x="68.16" y="110.38" type="line"/>
      <point x="265.78" y="147.034" type="line"/>
      <point x="267.78" y="754.0" type="line"/>
      <point x="265.78" y="1341.62" type="line"/>
      <point x="68.16" y="1375.62" type="line"/>
      <point x="68.16" y="1500.0" type="line"/>
      <point x="848.37" y="1500.0" type="line" smooth="yes"/>
      <point x="1095.328" y="1500.0"/>
      <point x="1349.134" y="1281.578"/>
      <point x="1349.134" y="1069.232" type="qcurve" smooth="yes"/>
      <point x="1349.134" y="841.78"/>
      <point x="1060.952" y="579.624"/>
      <point x="798.808" y="579.624" type="qcurve" smooth="yes"/>
      <point x="693.96" y="579.624"/>
      <point x="532.918" y="598.202"/>
      <point x="474.846" y="608.624" type="qcurve"/>
      <point x="483.846" y="731.578" type="line"/>
      <point x="540.424" y="719.616"/>
      <point x="644.698" y="709.924"/>
      <point x="734.588" y="709.924" type="qcurve" smooth="yes"/>
      <point x="885.52" y="709.924"/>
      <point x="1045.836" y="887.43"/>
      <point x="1044.452" y="1063.004" type="qcurve" smooth="yes"/>
      <point x="1043.414" y="1215.236"/>
      <point x="887.254" y="1364.7"/>
      <point x="745.246" y="1364.7" type="qcurve" smooth="yes"/>
      <point x="589.424" y="1364.7" type="line"/>
      <point x="557.5" y="1343.392" type="line"/>
      <point x="554.846" y="764.0" type="line"/>
      <point x="556.846" y="143.418" type="line"/>
      <point x="768.238" y="110.38" type="line"/>
      <point x="768.238" y="0.0" type="line"/>
    </contour>
  </outline>
</glyph>
<glyph name="T" format="2">
  <advance width="1356"/>
  <unicode hex="0054"/>
  <outline>
    <contour>
      <point x="40.0" y="1053.384" type="line"/>
      <point x="40.0" y="1500.0" type="line"/>
      <point x="1316.162" y="1500.0" type="line"/>
      <point x="1316.162" y="1053.384" type="line"/>
      <point x="1193.706" y="1053.384" type="line"/>
      <point x="1156.976" y="1368.16" type="line"/>
      <point x="841.23" y="1368.16" type="line"/>
      <point x="822.576" y="1349.544" type="line"/>
      <point x="821.614" y="754.0" type="line"/>
      <point x="823.268" y="146.034" type="line"/>
      <point x="1030.234" y="110.38" type="line"/>
      <point x="1030.234" y="0.0" type="line"/>
      <point x="323.928" y="0.0" type="line"/>
      <point x="323.928" y="110.38" type="line"/>
      <point x="532.202" y="146.034" type="line"/>
      <point x="534.202" y="754.0" type="line"/>
      <point x="533.24" y="1349.544" type="line"/>
      <point x="523.894" y="1368.16" type="line"/>
      <point x="198.84" y="1368.16" type="line"/>
      <point x="162.11" y="1053.384" type="line"/>
    </contour>
  </outline>
</glyph>
<glyph name="V" format="2">
  <advance width="1499"/>
  <unicode hex="0056"/>
  <outline>
    <contour>
      <point x="-16.16" y="1375.966" type="line"/>
      <point x="-16.16" y="1500.0" type="line"/>
      <point x="619.564" y="1500.0" type="line"/>
      <point x="619.564" y="1375.966" type="line"/>
      <point x="457.1" y="1337.388" type="line"/>
      <point x="646.108" y="816.224" type="line"/>
      <point x="837.846" y="298.018" type="line"/>
      <point x="1022.778" y="814.342" type="line"/>
      <point x="1204.056" y="1341.966" type="line"/>
      <point x="1027.782" y="1375.966" type="line"/>
      <point x="1027.782" y="1500.0" type="line"/>
      <point x="1528.246" y="1500.0" type="line"/>
      <point x="1528.246" y="1375.966" type="line"/>
      <point x="1359.242" y="1338.696" type="line"/>
      <point x="1151.58" y="768.186" type="line"/>
      <point x="876.382" y="-5.232" type="line"/>
      <point x="637.088" y="-5.232" type="line"/>
      <point x="362.89" y="746.574" type="line"/>
      <point x="142.152" y="1338.696" type="line"/>
    </contour>
  </outline>
</glyph>
<glyph name="W" format="2">
  <advance width="2207"/>
  <unicode hex="0057"/>
  <outline>
    <contour>
      <point x="-16.16" y="1375.966" type="line"/>
      <point x="-16.16" y="1500.0" type="line"/>
      <point x="618.804" y="1500.0" type="line"/>
      <point x="618.804" y="1375.966" type="line"/>
      <point x="450.87199999999996" y="1337.388" type="line"/>
      <point x="620.88" y="815.878" type="line"/>
      <point x="789.39" y="317.242" type="line"/>
      <point x="935.318" y="714.52" type="line"/>
      <point x="1092.516" y="1180.072" type="line"/>
      <point x="1170.778" y="1006.768" type="line"/>
      <point x="1045.584" y="641.992" type="line"/>
      <point x="826.158" y="-5.232" type="line"/>
      <point x="605.282" y="-5.232" type="line"/>
      <point x="353.928" y="738.616" type="line"/>
      <point x="142.844" y="1338.696" type="line"/>
    </contour>
    <contour>
      <point x="798.6179999999999" y="1382.236" type="line"/>
      <point x="798.6179999999999" y="1500.0" type="line"/>
      <point x="1403.202" y="1500.0" type="line"/>
      <point x="1403.202" y="1382.236" type="line"/>
      <point x="1248.004" y="1343.658" type="line"/>
      <point x="1406.472" y="819.376" type="line"/>
      <point x="1566.826" y="322.086" type="line"/>
      <point x="1734.492" y="817.878" type="line"/>
      <point x="1898.462" y="1341.966" type="line"/>
      <point x="1717.724" y="1375.966" type="line"/>
      <point x="1717.724" y="1500.0" type="line"/>
      <point x="2236.424" y="1500.0" type="line"/>
      <point x="2236.424" y="1375.966" type="line"/>
      <point x="2060.88" y="1338.696" type="line"/>
      <point x="1863.9859999999999" y="776.608" type="line"/>
      <point x="1608.708" y="-5.232" type="line"/>
      <point x="1383.254" y="-5.232" type="line"/>
      <point x="1156.014" y="726.696" type="line"/>
      <point x="949.664" y="1344.966" type="line"/>
    </contour>
  </outline>
</glyph>
<glyph name="X" format="2">
  <advance width="1450"/>
  <unicode hex="0058"/>
  <outline>
    <contour>
      <point x="-9.620000000000001" y="0.0" type="line"/>
      <point x="-9.620000000000001" y="110.38" type="line"/>
      <point x="148.0" y="145.034" type="line"/>
      <point x="650.178" y="853.346" type="line"/>
      <point x="697.892" y="853.346" type="line"/>
      <point x="1037.964" y="1347.198" type="line"/>
      <point x="879.994" y="1375.966" type="line"/>
      <point x="879.994" y="1500.0" type="line"/>
      <point x="1373.538" y="1500.0" type="line"/>
      <point x="1373.538" y="1375.966" type="line"/>
      <point x="1207.994" y="1343.928" type="line"/>
      <point x="785.39" y="744.658" type="line"/>
      <point x="736.638" y="744.658" type="line"/>
      <point x="318.03" y="141.764" type="line"/>
      <point x="480.844" y="110.38" type="line"/>
      <point x="480.844" y="0.0" type="line"/>
    </contour>
    <contour>
      <point x="28.27" y="1375.966" type="line"/>
      <point x="28.27" y="1500.0" type="line"/>
      <point x="673.336" y="1500.0" type="line"/>
      <point x="673.336" y="1375.966" type="line"/>
      <point x="514.5219999999999" y="1342.62" type="line"/>
      <point x="835.758" y="857.54" type="line"/>
      <point x="1315.572" y="145.034" type="line"/>
      <point x="1473.192" y="110.38" type="line"/>
      <point x="1473.192" y="0.0" type="line"/>
      <point x="819.164" y="0.0" type="line"/>
      <point x="819.164" y="110.38" type="line"/>
      <point x="976.594" y="145.034" type="line"/>
      <point x="591.506" y="734.734" type="line"/>
      <point x="179.35" y="1343.928" type="line"/>
    </contour>
  </outline>
</glyph>
<glyph name="backslash" format="2">
  <advance width="750"/>
  <unicode hex="005C"/>
  <outline>
    <contour>
      <point x="-30.776000000000003" y="1505.08" type="line"/>
      <point x="170.082" y="1572.3" type="line"/>
      <point x="786.428" y="-102.43" type="line"/>
      <point x="585.224" y="-168.958" type="line"/>
    </contour>
  </outline>
</glyph>
<glyph name="asciicircum" format="2">
  <advance width="1351"/>
  <unicode hex="005E"/>
  <outline>
    <contour>
      <point x="139.3" y="926.0" type="line"/>
      <point x="193.646" y="988.0"/>
      <point x="632.3" y="1501.0"/>
      <point x="655.3" y="1524.0" type="qcurve"/>
      <point x="676.03" y="1501.0"/>
      <point x="1151.764" y="989.0"/>
      <point x="1207.84" y="927.0" type="qcurve"/>
      <point x="1103.54" y="818.62" type="line"/>
      <point x="981.308" y="932.62"/>
      <point x="672.3" y="1230.78"/>
      <point x="657.3" y="1242.78" type="qcurve"/>
      <point x="638.3" y="1223.78"/>
      <point x="371.68" y="940.928"/>
      <point x="245.6" y="820.62" type="qcurve"/>
    </contour>
  </outline>
</glyph>
<glyph name="underscore" format="2">
  <advance width="1493"/>
  <unicode hex="005F"/>
  <outline>
    <contour>
      <point x="-20.0" y="-480.346" type="line"/>
      <point x="-20.0" y="-303.94" type="line"/>
      <point x="747.376" y="-297.248" type="line"/>
      <point x="1512.98" y="-303.94" type="line"/>
      <point x="1512.98" y="-480.346" type="line"/>
      <point x="747.376" y="-492.886" type="line"/>
    </contour>
  </outline>
</glyph>
<glyph name="grave" format="2">
  <advance width="1024"/>
  <unicode hex="0060"/>
  <outline>
    <contour>
      <point x="263.16" y="1477.452" type="qcurve" smooth="yes"/>
      <point x="263.16" y="1515.566"/>
      <point x="331.426" y="1569.638"/>
      <point x="371.308" y="1569.638" type="qcurve" smooth="yes"/>
      <point x="412.806" y="1569.638"/>
      <point x="499.38" y="1500.718"/>
      <point x="537.494" y="1455.414" type="qcurve" smooth="yes"/>
      <point x="713.802" y="1246.498" type="line"/>
      <point x="634.958" y="1166.346" type="line"/>
      <point x="352.464" y="1345.92" type="line" smooth="yes"/>
      <point x="306.62" y="1374.688"/>
      <point x="263.16" y="1431.49"/>
    </contour>
  </outline>
</glyph>
<glyph name="c" format="2">
  <advance width="1098"/>
  <unicode hex="0063"/>
  <outline>
    <contour>
      <point x="59.848" y="493.498" type="qcurve" smooth="yes"/>
      <point x="59.848" y="730.608"/>
      <point x="353.718" y="1041.03"/>
      <point x="590.36" y="1041.03" type="qcurve" smooth="yes"/>
      <point x="691.47" y="1041.03"/>
      <point x="822.314" y="1001.03"/>
      <point x="859.888" y="972.608" type="qcurve"/>
      <point x="883.234" y="1022.262" type="line"/>
      <point x="993.804" y="1022.262" type="line"/>
      <point x="993.804" y="657.806" type="line"/>
      <point x="878.812" y="657.806" type="line"/>
      <point x="861.12" y="731.608" type="line" smooth="yes"/>
      <point x="840.9259999999999" y="811.072"/>
      <point x="734.31" y="911.346"/>
      <point x="639.884" y="911.346" type="qcurve" smooth="yes"/>
      <point x="514.3779999999999" y="911.346"/>
      <point x="356.45" y="721.034"/>
      <point x="356.45" y="515.304" type="qcurve" smooth="yes"/>
      <point x="356.45" y="318.114"/>
      <point x="538.762" y="127.722"/>
      <point x="685.652" y="127.722" type="qcurve" smooth="yes"/>
      <point x="787.694" y="127.722"/>
      <point x="938.542" y="194.992"/>
      <point x="990.774" y="245.992" type="qcurve"/>
      <point x="1055.614" y="167.654" type="line"/>
      <point x="999.116" y="90.886"/>
      <point x="777.8199999999999" y="-23.73"/>
      <point x="608.018" y="-23.73" type="qcurve" smooth="yes"/>
      <point x="376.528" y="-23.73"/>
      <point x="59.848" y="255.654"/>
    </contour>
  </outline>
</glyph>
<glyph name="d" format="2">
  <advance width="1350"/>
  <unicode hex="0064"/>
  <outline>
    <contour>
      <point x="63.502" y="489.764" type="qcurve" smooth="yes"/>
      <point x="63.502" y="743.452"/>
      <point x="357.414" y="1037.3"/>
      <point x="586.448" y="1037.3" type="qcurve" smooth="yes"/>
      <point x="672.676" y="1037.3"/>
      <point x="829.752" y="992.992"/>
      <point x="880.136" y="957.684" type="qcurve"/>
      <point x="874.212" y="1362.16" type="line"/>
      <point x="714.478" y="1392.16" type="line"/>
      <point x="714.478" y="1500.0" type="line"/>
      <point x="1084.168" y="1534.0" type="line"/>
      <point x="1115.514" y="1534.0" type="line"/>
      <point x="1153.548" y="1496.81" type="line"/>
      <point x="1150.548" y="527.274" type="line"/>
      <point x="1159.548" y="128.84" type="line"/>
      <point x="1309.24" y="93.84" type="line"/>
      <point x="1309.24" y="0.0" type="line"/>
      <point x="951.79" y="0.0" type="line"/>
      <point x="900.79" y="60.0" type="line"/>
      <point x="885.174" y="137.582" type="line"/>
      <point x="833.7139999999999" y="75.96600000000001"/>
      <point x="662.372" y="-9.0"/>
      <point x="536.258" y="-9.0" type="qcurve" smooth="yes"/>
      <point x="333.376" y="-9.0"/>
      <point x="63.502" y="253.654"/>
    </contour>
    <contour>
      <point x="362.72" y="513.726" type="qcurve" smooth="yes"/>
      <point x="362.72" y="321.384"/>
      <point x="507.344" y="140.874"/>
      <point x="633.968" y="140.874" type="qcurve" smooth="yes"/>
      <point x="724.782" y="140.874"/>
      <point x="845.942" y="216.878"/>
      <point x="881.79" y="273.764" type="qcurve"/>
      <point x="886.06" y="517.772" type="line"/>
      <point x="885.7139999999999" y="797.076" type="line"/>
      <point x="851.596" y="846.194"/>
      <point x="735.55" y="906.274"/>
      <point x="654.314" y="906.274" type="qcurve" smooth="yes"/>
      <point x="521.998" y="906.274"/>
      <point x="362.72" y="702.912"/>
    </contour>
  </outline>
</glyph>
<glyph name="m" format="2">
  <advance width="2091"/>
  <unicode hex="006D"/>
  <outline>
    <contour>
      <point x="61.122" y="0.0" type="line"/>
      <point x="61.122" y="93.84" type="line"/>
      <point x="209.122" y="128.84" type="line"/>
      <point x="211.122" y="535.65" type="line"/>
      <point x="209.122" y="847.19" type="line"/>
      <point x="61.122" y="877.19" type="line"/>
      <point x="61.122" y="984.684" type="line"/>
      <point x="422.268" y="1021.452" type="line"/>
      <point x="457.268" y="994.452" type="line"/>
      <point x="481.576" y="870.262" type="line"/>
      <point x="541.69" y="946.338"/>
      <point x="743.146" y="1038.646"/>
      <point x="861.446" y="1038.646" type="qcurve" smooth="yes"/>
      <point x="990.02" y="1038.646"/>
      <point x="1146.286" y="943.646"/>
      <point x="1173.708" y="859.03" type="qcurve"/>
      <point x="1232.168" y="940.068"/>
      <point x="1437.856" y="1038.646"/>
      <point x="1559.772" y="1038.646" type="qcurve" smooth="yes"/>
      <point x="1725.882" y="1038.646"/>
      <point x="1889.186" y="883.764"/>
      <point x="1889.186" y="753.764" type="qcurve" smooth="yes"/>
      <point x="1888.84" y="688.532"/>
      <point x="1885.916" y="557.076"/>
      <point x="1885.916" y="538.764" type="qcurve" smooth="yes"/>
      <point x="1891.262" y="128.494" type="line"/>
      <point x="2039.954" y="93.84" type="line"/>
      <point x="2039.954" y="0.0" type="line"/>
      <point x="1470.88" y="0.0" type="line"/>
      <point x="1470.88" y="93.84" type="line"/>
      <point x="1610.196" y="128.84" type="line"/>
      <point x="1612.542" y="521.118" type="line"/>
      <point x="1612.542" y="688.852" type="line" smooth="yes"/>
      <point x="1612.542" y="766.16"/>
      <point x="1516.922" y="855.202"/>
      <point x="1435.264" y="855.202" type="qcurve" smooth="yes"/>
      <point x="1360.104" y="855.202"/>
      <point x="1230.556" y="787.966"/>
      <point x="1189.13" y="729.27" type="qcurve"/>
      <point x="1186.514" y="669.772"/>
      <point x="1185.168" y="537.08"/>
      <point x="1185.168" y="525.962" type="qcurve" smooth="yes"/>
      <point x="1189.476" y="128.84" type="line"/>
      <point x="1321.906" y="93.84" type="line"/>
      <point x="1321.906" y="0.0" type="line"/>
      <point x="771.17" y="0.0" type="line"/>
      <point x="771.17" y="93.84" type="line"/>
      <point x="910.486" y="128.84" type="line"/>
      <point x="912.486" y="535.65" type="line"/>
      <point x="912.486" y="700.27" type="line" smooth="yes"/>
      <point x="912.486" y="771.696"/>
      <point x="814.364" y="854.856"/>
      <point x="739.014" y="855.202" type="qcurve" smooth="yes"/>
      <point x="662.816" y="855.548"/>
      <point x="527.884" y="786.004"/>
      <point x="486.11199999999997" y="725.0" type="qcurve"/>
      <point x="485.11199999999997" y="535.65" type="line"/>
      <point x="487.11199999999997" y="128.84" type="line"/>
      <point x="613.348" y="93.84" type="line"/>
      <point x="613.348" y="0.0" type="line"/>
    </contour>
  </outline>
</glyph>
<glyph name="o" format="2">
  <advance width="1299"/>
  <unicode hex="006F"/>
  <outline>
    <contour>
      <point x="60.54" y="508.65" type="qcurve" smooth="yes"/>
      <point x="60.54" y="736.376"/>
      <point x="384.6" y="1040.684"/>
      <point x="647.394" y="1040.684" type="qcurve" smooth="yes"/>
      <point x="911.188" y="1040.684"/>
      <point x="1238.594" y="756.722"/>
      <point x="1238.594" y="514.65" type="qcurve" smooth="yes"/>
      <point x="1238.594" y="287.924"/>
      <point x="916.88" y="-23.73"/>
      <point x="654.086" y="-23.73" type="qcurve" smooth="yes"/>
      <point x="390.292" y="-23.73"/>
      <point x="60.54" y="264.578"/>
    </contour>
    <contour>
      <point x="356.796" y="526.92" type="qcurve" smooth="yes"/>
      <point x="357.796" y="330.004"/>
      <point x="514.808" y="97.342"/>
      <point x="646.432" y="97.342" type="qcurve" smooth="yes"/>
      <point x="788.018" y="97.342"/>
      <point x="938.414" y="308.35"/>
      <point x="938.414" y="512.92" type="qcurve" smooth="yes"/>
      <point x="938.414" y="702.836"/>
      <point x="781.056" y="910.152"/>
      <point x="648.432" y="910.152" type="qcurve" smooth="yes"/>
      <point x="505.192" y="910.152"/>
      <point x="355.796" y="722.49"/>
    </contour>
  </outline>
</glyph>
<glyph name="x" format="2">
  <advance width="1153"/>
  <unicode hex="0078"/>
  <outline>
    <contour>
      <point x="14.962" y="0.0" type="line"/>
      <point x="14.962" y="93.84" type="line"/>
      <point x="162.928" y="129.186" type="line"/>
      <point x="504.186" y="551.726" type="line"/>
      <point x="554.01" y="554.148" type="line"/>
      <point x="802.428" y="880.0" type="line"/>
      <point x="682.036" y="910.0" type="line"/>
      <point x="682.036" y="1017.3" type="line"/>
      <point x="1099.766" y="1017.3" type="line"/>
      <point x="1099.766" y="910.0" type="line"/>
      <point x="961.8" y="875.0" type="line"/>
      <point x="648.458" y="486.224" type="line"/>
      <point x="598.634" y="485.186" type="line"/>
      <point x="326.106" y="125.57" type="line"/>
      <point x="441.688" y="93.84" type="line"/>
      <point x="441.688" y="0.0" type="line"/>
    </contour>
    <contour>
      <point x="13.08" y="910.0" type="line"/>
      <point x="13.08" y="1017.3" type="line"/>
      <point x="545.454" y="1017.3" type="line"/>
      <point x="545.454" y="910.0" type="line"/>
      <point x="437.332" y="873.0" type="line"/>
      <point x="685.64" y="564.304" type="line"/>
      <point x="1029.18" y="129.186" type="line"/>
      <point x="1153.028" y="93.84" type="line"/>
      <point x="1153.028" y="0.0" type="line"/>
      <point x="604.426" y="0.0" type="line"/>
      <point x="604.426" y="93.84" type="line"/>
      <point x="716.7" y="130.148" type="line"/>
      <point x="448.392" y="467.878" type="line"/>
      <point x="124.506" y="875.0" type="line"/>
    </contour>
  </outline>
</glyph>
<glyph name="y" format="2">
  <advance width="1162"/>
  <unicode hex="0079"/>
  <outline>
    <contour>
      <point x="-6.54" y="910.0" type="line"/>
      <point x="-6.54" y="1017.3" type="line"/>
      <point x="541.328" y="1017.3" type="line"/>
      <point x="541.328" y="910.0" type="line"/>
      <point x="412.826" y="873.346" type="line"/>
      <point x="532.058" y="555.76" type="line"/>
      <point x="652.792" y="256.748" type="line"/>
      <point x="769.4879999999999" y="560.49" type="line"/>
      <point x="881.492" y="878.27" type="line"/>
      <point x="748.644" y="910.0" type="line"/>
      <point x="748.644" y="1017.3" type="line"/>
      <point x="1177.792" y="1017.3" type="line"/>
      <point x="1177.792" y="910.0" type="line"/>
      <point x="1033.598" y="875.0" type="line"/>
      <point x="891.134" y="520.182" type="line"/>
      <point x="610.476" y="-226.796" type="line" smooth="yes"/>
      <point x="554.29" y="-373.434"/>
      <point x="339.63" y="-494.422"/>
      <point x="214.992" y="-494.422" type="qcurve"/>
      <point x="44.536" y="-452.734" type="line"/>
      <point x="44.536" y="-345.434" type="line"/>
      <point x="179.79" y="-347.856" type="line" smooth="yes"/>
      <point x="256.972" y="-349.24"/>
      <point x="428.846" y="-283.434"/>
      <point x="475.036" y="-173.548" type="qcurve" smooth="yes"/>
      <point x="545.728" y="0.0" type="line"/>
      <point x="471.68399999999997" y="0.0" type="line"/>
      <point x="280.186" y="482.384" type="line"/>
      <point x="117.342" y="875.0" type="line"/>
    </contour>
  </outline>
</glyph>
<glyph name="braceleft" format="2">
  <advance width="731"/>
  <unicode hex="007B"/>
  <outline>
    <contour>
      <point x="54.464" y="479.27" type="line"/>
      <point x="54.464" y="590.73" type="line"/>
      <point x="170.93200000000002" y="600.73" type="line" smooth="yes"/>
      <point x="225.548" y="605.422"/>
      <point x="285.966" y="662.422"/>
      <point x="285.966" y="724.65" type="qcurve" smooth="yes"/>
      <point x="285.966" y="835.73"/>
      <point x="162.126" y="1066.0"/>
      <point x="162.126" y="1184.0" type="qcurve" smooth="yes"/>
      <point x="162.126" y="1343.0"/>
      <point x="344.89" y="1510.0"/>
      <point x="492.586" y="1510.0" type="qcurve" smooth="yes"/>
      <point x="558.742" y="1510.0"/>
      <point x="685.098" y="1503.0"/>
      <point x="719.33" y="1500.0" type="qcurve"/>
      <point x="719.33" y="1386.0" type="line"/>
      <point x="671.136" y="1388.0"/>
      <point x="628.136" y="1388.0"/>
      <point x="582.25" y="1388.0" type="qcurve" smooth="yes"/>
      <point x="504.402" y="1388.0"/>
      <point x="418.592" y="1297.46"/>
      <point x="418.592" y="1200.152" type="qcurve" smooth="yes"/>
      <point x="418.592" y="1098.498"/>
      <point x="525.006" y="883.0"/>
      <point x="525.006" y="792.0" type="qcurve" smooth="yes"/>
      <point x="525.006" y="697.0"/>
      <point x="444.09" y="572.73"/>
      <point x="369.562" y="551.384" type="qcurve"/>
      <point x="453.668" y="521.19"/>
      <point x="525.006" y="392.304"/>
      <point x="525.006" y="319.882" type="qcurve" smooth="yes"/>
      <point x="525.006" y="225.422"/>
      <point x="395.512" y="-80.076"/>
      <point x="395.512" y="-181.384" type="qcurve" smooth="yes"/>
      <point x="395.512" y="-278.692"/>
      <point x="484.938" y="-373.308"/>
      <point x="563.478" y="-373.308" type="qcurve" smooth="yes"/>
      <point x="609.364" y="-373.308"/>
      <point x="666.482" y="-373.308"/>
      <point x="715.022" y="-371.308" type="qcurve"/>
      <point x="715.022" y="-483.308" type="line"/>
      <point x="680.444" y="-486.308"/>
      <point x="547.236" y="-495.0"/>
      <point x="481.08" y="-495.0" type="qcurve" smooth="yes"/>
      <point x="321.966" y="-495.0"/>
      <point x="139.046" y="-327.0"/>
      <point x="139.046" y="-168.0" type="qcurve" smooth="yes"/>
      <point x="139.046" y="-50.0"/>
      <point x="284.966" y="246.0"/>
      <point x="284.966" y="364.0" type="qcurve"/>
      <point x="284.966" y="479.27" type="line"/>
    </contour>
  </outline>
</glyph>
<glyph name="asciitilde" format="2">
  <advance width="1031"/>
  <unicode hex="007E"/>
  <outline>
    <contour>
      <point x="13.156" y="607.574" type="line"/>
      <point x="70.658" y="699.536"/>
      <point x="265.882" y="822.954"/>
      <point x="352.498" y="822.954" type="qcurve"/>
      <point x="717.852" y="694.528" type="line"/>
      <point x="780.62" y="694.528"/>
      <point x="878.156" y="776.646"/>
      <point x="911.156" y="828.224" type="qcurve"/>
      <point x="1014.304" y="754.772" type="line"/>
      <point x="966.034" y="651.118"/>
      <point x="801.274" y="502.506"/>
      <point x="677.924" y="502.506" type="qcurve"/>
      <point x="332.456" y="625.008" type="line"/>
      <point x="270.072" y="625.008"/>
      <point x="147.152" y="568.24"/>
      <point x="90.498" y="519.008" type="qcurve"/>
    </contour>
  </outline>
</glyph>
<glyph name="sterling" format="2">
  <advance width="1113"/>
  <unicode hex="00A3"/>
  <outline>
    <contour>
      <point x="661.36" y="560.38" type="qcurve" smooth="yes"/>
      <point x="661.36" y="434.76"/>
      <point x="519.744" y="225.136"/>
      <point x="431.36" y="178.022" type="qcurve"/>
      <point x="439.36" y="145.022" type="line"/>
      <point x="835.9" y="142.6" type="line"/>
      <point x="962.98" y="389.3" type="line"/>
      <point x="1085.36" y="389.3" type="line"/>
      <point x="986.36" y="0.0" type="line"/>
      <point x="70.0" y="0.0" type="line"/>
      <point x="10.0" y="117.3" type="line"/>
      <point x="45.304" y="155.448" type="line"/>
      <point x="237.266" y="144.448"/>
      <point x="430.0" y="350.498"/>
      <point x="430.0" y="447.148" type="qcurve" smooth="yes"/>
      <point x="430.0" y="524.692"/>
      <point x="347.004" y="673.578"/>
      <point x="295.62" y="743.54" type="qcurve" smooth="yes"/>
      <point x="222.738" y="842.346"/>
      <point x="107.578" y="1030.696"/>
      <point x="107.578" y="1137.696" type="qcurve" smooth="yes"/>
      <point x="107.578" y="1289.38"/>
      <point x="362.494" y="1506.19"/>
      <point x="570.174" y="1506.19" type="qcurve" smooth="yes"/>
      <point x="728.596" y="1506.19"/>
      <point x="938.246" y="1408.806"/>
      <point x="1013.9" y="1328.0" type="qcurve"/>
      <point x="937.9" y="1201.24" type="line"/>
      <point x="877.17" y="1262.392"/>
      <point x="718.744" y="1347.818"/>
      <point x="616.238" y="1347.818" type="qcurve" smooth="yes"/>
      <point x="492.196" y="1347.818"/>
      <point x="371.728" y="1233.198"/>
      <point x="371.728" y="1150.198" type="qcurve" smooth="yes"/>
      <point x="371.728" y="1074.198"/>
      <point x="465.65999999999997" y="923.0"/>
      <point x="530.66" y="836.0" type="qcurve" smooth="yes"/>
      <point x="587.66" y="759.0"/>
      <point x="661.36" y="619.38"/>
    </contour>
    <contour>
      <point x="181.0" y="571.0" type="line"/>
      <point x="153.54" y="731.22" type="line"/>
      <point x="935.98" y="731.22" type="line"/>
      <point x="902.52" y="571.0" type="line"/>
    </contour>
  </outline>
</glyph>
<glyph name="yen" format="2">
  <advance width="1345"/>
  <unicode hex="00A5"/>
  <outline>
    <contour>
      <point x="181.19" y="621.312" type="line"/>
      <point x="149.806" y="773.262" type="line"/>
      <point x="1210.306" y="773.262" type="line"/>
      <point x="1176.846" y="621.312" type="line"/>
    </contour>
    <contour>
      <point x="542.848" y="649.008" type="line"/>
      <point x="354.814" y="982.228" type="line"/>
      <point x="143.73" y="1347.198" type="line"/>
      <point x="0.379999999999999" y="1375.966" type="line"/>
      <point x="0.379999999999999" y="1500.0" type="line"/>
      <point x="604.952" y="1500.0" type="line"/>
      <point x="604.952" y="1375.966" type="line"/>
      <point x="465.90999999999997" y="1341.312" type="line"/>
      <point x="610.0699999999999" y="1063.304" type="line"/>
      <point x="761.572" y="803.346" type="line"/>
      <point x="910.42" y="1074.194" type="line"/>
      <point x="1050.154" y="1345.89" type="line"/>
      <point x="891.492" y="1375.966" type="line"/>
      <point x="891.492" y="1500.0" type="line"/>
      <point x="1358.694" y="1500.0" type="line"/>
      <point x="1358.694" y="1375.966" type="line"/>
      <point x="1209.69" y="1346.544" type="line"/>
      <point x="1017.838" y="1014.114" type="line"/>
      <point x="824.3779999999999" y="654.008" type="line"/>
      <point x="826.032" y="145.034" type="line"/>
      <point x="1032.614" y="110.38" type="line"/>
      <point x="1032.614" y="0.0" type="line"/>
      <point x="331.266" y="0.0" type="line"/>
      <point x="331.266" y="110.38" type="line"/>
      <point x="540.848" y="145.034" type="line"/>
    </contour>
    <contour>
      <point x="237.73" y="316.122" type="line"/>
      <point x="206.346" y="468.072" type="line"/>
      <point x="1152.728" y="468.072" type="line"/>
      <point x="1119.268" y="316.122" type="line"/>
    </contour>
  </outline>
</glyph>
<glyph name="section" format="2">
  <advance width="1139"/>
  <unicode hex="00A7"/>
  <outline>
    <contour>
      <point x="1036.9" y="137.0" type="qcurve" smooth="yes"/>
      <point x="1036.9" y="-38.114"/>
      <point x="804.562" y="-253.0"/>
      <point x="613.106" y="-253.0" type="qcurve" smooth="yes"/>
      <point x="492.494" y="-253.0"/>
      <point x="321.996" y="-187.0"/>
      <point x="267.19" y="-135.0" type="qcurve"/>
      <point x="223.422" y="-235.0" type="line"/>
      <point x="117.388" y="-235.0" type="line"/>
      <point x="117.388" y="202.92" type="line"/>
      <point x="234.114" y="202.92" type="line"/>
      <point x="249.692" y="122.376" type="line" smooth="yes"/>
      <point x="274.692" y="-8.316000000000003"/>
      <point x="468.84" y="-120.16"/>
      <point x="594.57" y="-120.16" type="qcurve" smooth="yes"/>
      <point x="725.418" y="-120.16"/>
      <point x="846.84" y="-5.194000000000001"/>
      <point x="846.84" y="91.886" type="qcurve" smooth="yes"/>
      <point x="846.84" y="206.506"/>
      <point x="686.57" y="312.894"/>
      <point x="504.498" y="380.24" type="qcurve" smooth="yes"/>
      <point x="323.008" y="447.392"/>
      <point x="150.046" y="619.814"/>
      <point x="150.046" y="761.814" type="qcurve" smooth="yes"/>
      <point x="150.046" y="854.118"/>
      <point x="226.696" y="994.004"/>
      <point x="291.886" y="1038.62" type="qcurve"/>
      <point x="250.194" y="1075.966"/>
      <point x="209.65800000000002" y="1174.156"/>
      <point x="210.35" y="1240.038" type="qcurve" smooth="yes"/>
      <point x="211.388" y="1352.806"/>
      <point x="398.726" y="1512.0"/>
      <point x="562.106" y="1512.0" type="qcurve" smooth="yes"/>
      <point x="644.642" y="1512.0"/>
      <point x="758.87" y="1474.422"/>
      <point x="800.676" y="1449.0" type="qcurve"/>
      <point x="815.7139999999999" y="1480.0" type="line"/>
      <point x="916.402" y="1480.0" type="line"/>
      <point x="916.402" y="1177.08" type="line"/>
      <point x="799.676" y="1177.08" type="line"/>
      <point x="780.406" y="1275.202" type="line" smooth="yes"/>
      <point x="770.33" y="1325.084"/>
      <point x="655.718" y="1387.16"/>
      <point x="568.182" y="1387.16" type="qcurve" smooth="yes"/>
      <point x="483.064" y="1387.16"/>
      <point x="399.718" y="1322.426"/>
      <point x="399.718" y="1267.232" type="qcurve" smooth="yes"/>
      <point x="399.718" y="1208.692"/>
      <point x="488.102" y="1142.384"/>
      <point x="644.756" y="1100.46" type="qcurve" smooth="yes"/>
      <point x="819.17" y="1054.346"/>
      <point x="1003.824" y="909.924"/>
      <point x="1003.824" y="767.692" type="qcurve" smooth="yes"/>
      <point x="1003.824" y="668.692"/>
      <point x="882.056" y="516.0"/>
      <point x="778.402" y="485.0" type="qcurve"/>
      <point x="899.014" y="430.692"/>
      <point x="1036.9" y="267.308"/>
    </contour>
    <contour>
      <point x="323.954" y="801.696" type="qcurve" smooth="yes"/>
      <point x="323.954" y="726.118"/>
      <point x="434.992" y="620.19"/>
      <point x="599.49" y="558.266" type="qcurve"/>
      <point x="694.646" y="558.958"/>
      <point x="819.342" y="653.886"/>
      <point x="819.342" y="730.658" type="qcurve" smooth="yes"/>
      <point x="819.342" y="807.046"/>
      <point x="693.106" y="878.932"/>
      <point x="535.334" y="925.202" type="qcurve" smooth="yes"/>
      <point x="507.296" y="933.548"/>
      <point x="445.418" y="953.354"/>
      <point x="423.726" y="962.354" type="qcurve"/>
      <point x="377.186" y="941.392"/>
      <point x="323.954" y="859.62"/>
    </contour>
  </outline>
</glyph>
<glyph name="dieresis" format="2">
  <advance width="1024"/>
  <unicode hex="00A8"/>
  <anchor x="512.0" y="1017.3" name="_GRKtop"/>
  <outline>
    <contour>
      <point x="615.62" y="1295.684" type="qcurve" smooth="yes"/>
      <point x="615.62" y="1356.22"/>
      <point x="681.848" y="1420.756"/>
      <point x="743.384" y="1420.756" type="qcurve" smooth="yes"/>
      <point x="801.92" y="1420.756"/>
      <point x="871.148" y="1351.528"/>
      <point x="871.148" y="1295.684" type="qcurve" smooth="yes"/>
      <point x="871.148" y="1235.802"/>
      <point x="806.266" y="1170.92"/>
      <point x="743.384" y="1170.92" type="qcurve" smooth="yes"/>
      <point x="684.848" y="1170.92"/>
      <point x="615.62" y="1239.148"/>
    </contour>
    <contour>
      <point x="152.852" y="1295.684" type="qcurve" smooth="yes"/>
      <point x="152.852" y="1356.22"/>
      <point x="218.734" y="1420.756"/>
      <point x="280.616" y="1420.756" type="qcurve" smooth="yes"/>
      <point x="339.152" y="1420.756"/>
      <point x="408.38" y="1351.528"/>
      <point x="408.38" y="1295.684" type="qcurve" smooth="yes"/>
      <point x="408.38" y="1235.802"/>
      <point x="343.152" y="1170.92"/>
      <point x="280.616" y="1170.92" type="qcurve" smooth="yes"/>
      <point x="222.08" y="1170.92"/>
      <point x="152.852" y="1239.148"/>
    </contour>
  </outline>
</glyph>
<glyph name="copyright" format="2">
  <advance width="2048"/>
  <unicode hex="00A9"/>
  <outline>
    <contour>
      <point x="542.426" y="655.772" type="qcurve" smooth="yes"/>
      <point x="542.426" y="897.54"/>
      <point x="815.536" y="1197.582"/>
      <point x="1052.954" y="1197.582" type="qcurve" smooth="yes"/>
      <point x="1123.912" y="1197.582"/>
      <point x="1241.452" y="1165.62"/>
      <point x="1271.452" y="1142.658" type="qcurve"/>
      <point x="1297.916" y="1192.852" type="line"/>
      <point x="1398.372" y="1165.582" type="line"/>
      <point x="1411.95" y="846.156" type="line"/>
      <point x="1301.148" y="828.118" type="line"/>
      <point x="1264.604" y="974.712" type="line"/>
      <point x="1233.33" y="1019.438"/>
      <point x="1133.79" y="1074.818"/>
      <point x="1072.638" y="1074.818" type="qcurve" smooth="yes"/>
      <point x="942.98" y="1074.818"/>
      <point x="784.36" y="884.16"/>
      <point x="784.36" y="689.468" type="qcurve" smooth="yes"/>
      <point x="784.36" y="494.388"/>
      <point x="970.866" y="301.574"/>
      <point x="1100.828" y="301.574" type="qcurve" smooth="yes"/>
      <point x="1203.912" y="301.574"/>
      <point x="1373.418" y="388.658"/>
      <point x="1418.65" y="443.582" type="qcurve"/>
      <point x="1479.688" y="363.738" type="line"/>
      <point x="1421.84" y="275.928"/>
      <point x="1191.106" y="155.65800000000002"/>
      <point x="1061.384" y="155.65800000000002" type="qcurve" smooth="yes"/>
      <point x="831.422" y="155.65800000000002"/>
      <point x="542.426" y="422.62"/>
    </contour>
    <contour>
      <point x="101.0" y="685.0" type="qcurve" smooth="yes"/>
      <point x="101.0" y="1061.0"/>
      <point x="622.0" y="1570.0"/>
      <point x="1026.0" y="1570.0" type="qcurve" smooth="yes"/>
      <point x="1428.0" y="1570.0"/>
      <point x="1947.0" y="1087.0"/>
      <point x="1947.0" y="706.0" type="qcurve" smooth="yes"/>
      <point x="1947.0" y="288.0"/>
      <point x="1435.0" y="-242.0"/>
      <point x="1038.0" y="-242.0" type="qcurve" smooth="yes"/>
      <point x="629.0" y="-242.0"/>
      <point x="101.0" y="276.0"/>
    </contour>
    <contour>
      <point x="281.57" y="680.654" type="qcurve" smooth="yes"/>
      <point x="281.57" y="341.92"/>
      <point x="729.228" y="-101.738"/>
      <point x="1053.308" y="-101.738" type="qcurve" smooth="yes"/>
      <point x="1367.734" y="-101.738"/>
      <point x="1766.43" y="366.228"/>
      <point x="1766.43" y="697.308" type="qcurve" smooth="yes"/>
      <point x="1766.43" y="999.734"/>
      <point x="1345.08" y="1429.738"/>
      <point x="1006.346" y="1429.738" type="qcurve" smooth="yes"/>
      <point x="685.266" y="1429.738"/>
      <point x="281.57" y="991.08"/>
    </contour>
  </outline>
</glyph>
<glyph name="guillemetleft" format="2">
  <advance width="1377"/>
  <unicode hex="00AB"/>
  <outline>
    <contour>
      <point x="31.92" y="630.92" type="line"/>
      <point x="112.806" y="679.612"/>
      <point x="609.806" y="990.764"/>
      <point x="678.0" y="1034.38" type="qcurve" smooth="yes"/>
      <point x="760.11" y="1087.376"/>
      <point x="849.03" y="962.696"/>
      <point x="770.92" y="909.084" type="qcurve" smooth="yes"/>
      <point x="661.582" y="833.666"/>
      <point x="346.714" y="631.076"/>
      <point x="315.33" y="613.692" type="qcurve"/>
      <point x="346.022" y="593.076"/>
      <point x="682.958" y="367.414"/>
      <point x="774.92" y="303.76" type="qcurve" smooth="yes"/>
      <point x="851.684" y="251.11"/>
      <point x="777.266" y="127.004"/>
      <point x="697.0" y="170.54" type="qcurve" smooth="yes"/>
      <point x="632.73" y="204.886"/>
      <point x="106.92" y="536.0"/>
      <point x="31.92" y="584.0" type="qcurve"/>
    </contour>
    <contour>
      <point x="546.934" y="630.92" type="line"/>
      <point x="627.8199999999999" y="679.612"/>
      <point x="1124.82" y="990.764"/>
      <point x="1193.014" y="1034.38" type="qcurve" smooth="yes"/>
      <point x="1275.124" y="1087.376"/>
      <point x="1364.044" y="962.696"/>
      <point x="1285.934" y="909.084" type="qcurve" smooth="yes"/>
      <point x="1176.596" y="833.666"/>
      <point x="861.728" y="631.076"/>
      <point x="830.344" y="613.692" type="qcurve"/>
      <point x="861.036" y="593.076"/>
      <point x="1197.972" y="367.414"/>
      <point x="1289.934" y="303.76" type="qcurve" smooth="yes"/>
      <point x="1366.698" y="251.11"/>
      <point x="1292.28" y="127.004"/>
      <point x="1212.014" y="170.54" type="qcurve" smooth="yes"/>
      <point x="1147.744" y="204.886"/>
      <point x="621.934" y="536.0"/>
      <point x="546.934" y="584.0" type="qcurve"/>
    </contour>
  </outline>
</glyph>
<glyph name="degree" format="2">
  <advance width="882"/>
  <unicode hex="00B0"/>
  <outline>
    <contour>
      <point x="124.0" y="1243.0" type="qcurve" smooth="yes"/>
      <point x="124.0" y="1371.0"/>
      <point x="302.0" y="1560.0"/>
      <point x="441.0" y="1560.0" type="qcurve" smooth="yes"/>
      <point x="580.0" y="1560.0"/>
      <point x="758.0" y="1371.0"/>
      <point x="758.0" y="1243.0" type="qcurve" smooth="yes"/>
      <point x="758.0" y="1118.0"/>
      <point x="580.0" y="928.0"/>
      <point x="441.0" y="928.0" type="qcurve" smooth="yes"/>
      <point x="302.0" y="928.0"/>
      <point x="124.0" y="1118.0"/>
    </contour>
    <contour>
      <point x="258.148" y="1243.0" type="qcurve" smooth="yes"/>
      <point x="258.148" y="1172.19"/>
      <point x="361.536" y="1061.802"/>
      <point x="441.0" y="1061.802" type="qcurve" smooth="yes"/>
      <point x="521.118" y="1061.802"/>
      <point x="623.852" y="1172.19"/>
      <point x="623.852" y="1243.0" type="qcurve" smooth="yes"/>
      <point x="623.852" y="1317.81"/>
      <point x="521.118" y="1426.198"/>
      <point x="441.0" y="1426.198" type="qcurve" smooth="yes"/>
      <point x="361.536" y="1426.198"/>
      <point x="258.148" y="1317.81"/>
    </contour>
  </outline>
</glyph>
<glyph name="twosuperior" format="2">
  <advance width="819"/>
  <unicode hex="00B2"/>
  <outline>
    <contour>
      <point x="79.0" y="671.0" type="line"/>
      <point x="77.692" y="777.0" type="line"/>
      <point x="93.346" y="853.076"/>
      <point x="213.958" y="1011.844"/>
      <point x="350.0" y="1083.0" type="qcurve" smooth="yes"/>
      <point x="451.046" y="1135.658"/>
      <point x="514.7" y="1220.544"/>
      <point x="512.738" y="1282.776" type="qcurve" smooth="yes"/>
      <point x="510.776" y="1339.084"/>
      <point x="434.004" y="1393.43"/>
      <point x="380.004" y="1393.43" type="qcurve" smooth="yes"/>
      <point x="304.616" y="1393.43"/>
      <point x="200.0" y="1349.43"/>
      <point x="145.0" y="1299.43" type="qcurve"/>
      <point x="78.92" y="1394.54" type="line"/>
      <point x="128.92" y="1445.54"/>
      <point x="292.646" y="1520.0"/>
      <point x="420.3" y="1520.0" type="qcurve" smooth="yes"/>
      <point x="558.6" y="1520.0"/>
      <point x="724.642" y="1406.426"/>
      <point x="725.68" y="1305.08" type="qcurve" smooth="yes"/>
      <point x="726.718" y="1189.08"/>
      <point x="573.828" y="1042.696"/>
      <point x="482.718" y="1003.658" type="qcurve" smooth="yes"/>
      <point x="341.878" y="942.35"/>
      <point x="253.68" y="873.84"/>
      <point x="239.988" y="846.76" type="qcurve"/>
      <point x="240.68" y="824.566" type="line"/>
      <point x="745.68" y="824.22" type="line"/>
      <point x="745.68" y="671.0" type="line"/>
    </contour>
  </outline>
</glyph>
<glyph name="threesuperior" format="2">
  <advance width="773"/>
  <unicode hex="00B3"/>
  <outline>
    <contour>
      <point x="44.768" y="739.0" type="qcurve"/>
      <point x="95.768" y="845.84" type="line"/>
      <point x="147.848" y="804.57"/>
      <point x="254.08" y="768.84"/>
      <point x="328.16" y="768.84" type="qcurve" smooth="yes"/>
      <point x="404.738" y="768.84"/>
      <point x="494.278" y="837.11"/>
      <point x="494.278" y="913.19" type="qcurve" smooth="yes"/>
      <point x="494.278" y="987.27"/>
      <point x="374.848" y="1053.81"/>
      <point x="250.768" y="1053.81" type="qcurve" smooth="yes"/>
      <point x="219.768" y="1053.81" type="line"/>
      <point x="203.768" y="1157.806" type="line"/>
      <point x="266.768" y="1160.806" type="line" smooth="yes"/>
      <point x="374.658" y="1166.114"/>
      <point x="471.008" y="1238.27"/>
      <point x="471.008" y="1301.696" type="qcurve" smooth="yes"/>
      <point x="471.008" y="1352.928"/>
      <point x="409.084" y="1402.16"/>
      <point x="342.468" y="1402.16" type="qcurve" smooth="yes"/>
      <point x="276.388" y="1402.16"/>
      <point x="180.924" y="1370.274"/>
      <point x="129.768" y="1339.042" type="qcurve"/>
      <point x="88.768" y="1422.0" type="line"/>
      <point x="143.768" y="1468.0"/>
      <point x="292.802" y="1520.0"/>
      <point x="397.068" y="1520.0" type="qcurve" smooth="yes"/>
      <point x="528.528" y="1520.0"/>
      <point x="673.756" y="1418.0"/>
      <point x="674.448" y="1337.0" type="qcurve" smooth="yes"/>
      <point x="675.14" y="1249.924"/>
      <point x="558.448" y="1142.0"/>
      <point x="444.448" y="1118.0" type="qcurve"/>
      <point x="444.448" y="1114.0" type="line"/>
      <point x="563.448" y="1111.0"/>
      <point x="699.448" y="1001.0"/>
      <point x="699.448" y="905.0" type="qcurve" smooth="yes"/>
      <point x="699.448" y="783.0"/>
      <point x="504.072" y="649.0"/>
      <point x="345.768" y="649.0" type="qcurve" smooth="yes"/>
      <point x="259.768" y="649.0"/>
      <point x="96.768" y="697.0"/>
    </contour>
  </outline>
</glyph>
<glyph name="ordmasculine" format="2">
  <advance width="1105"/>
  <unicode hex="00BA"/>
  <outline>
    <contour>
      <point x="60.928" y="1093.654" type="qcurve" smooth="yes"/>
      <point x="60.928" y="1285.882"/>
      <point x="322.19" y="1543.038"/>
      <point x="550.604" y="1543.038" type="qcurve" smooth="yes"/>
      <point x="780.018" y="1543.038"/>
      <point x="1044.28" y="1302.882"/>
      <point x="1044.28" y="1098.654" type="qcurve" smooth="yes"/>
      <point x="1044.28" y="907.772"/>
      <point x="784.672" y="644.27"/>
      <point x="555.95" y="644.27" type="qcurve" smooth="yes"/>
      <point x="326.536" y="644.27"/>
      <point x="60.928" y="887.772"/>
    </contour>
    <contour>
      <point x="318.508" y="1108.924" type="qcurve" smooth="yes"/>
      <point x="318.854" y="941.89"/>
      <point x="445.25" y="740.65"/>
      <point x="548.604" y="740.65" type="qcurve" smooth="yes"/>
      <point x="659.92" y="740.65"/>
      <point x="781.046" y="922.928"/>
      <point x="781.046" y="1096.616" type="qcurve" smooth="yes"/>
      <point x="781.046" y="1258.304"/>
      <point x="653.958" y="1437.89"/>
      <point x="550.604" y="1437.89" type="qcurve" smooth="yes"/>
      <point x="437.634" y="1437.89"/>
      <point x="317.508" y="1276.266"/>
    </contour>
  </outline>
</glyph>
<glyph name="breve" format="2">
  <advance width="1024"/>
  <unicode hex="02D8"/>
  <outline>
    <contour>
      <point x="796.65" y="1513.144" type="qcurve"/>
      <point x="880.186" y="1463.258" type="line"/>
      <point x="866.148" y="1360.57"/>
      <point x="656.186" y="1171.0"/>
      <point x="513.0" y="1171.0" type="qcurve" smooth="yes"/>
      <point x="369.814" y="1171.0"/>
      <point x="164.084" y="1339.186"/>
      <point x="143.814" y="1460.258" type="qcurve"/>
      <point x="231.696" y="1514.144" type="line"/>
      <point x="265.772" y="1449.878"/>
      <point x="411.118" y="1342.494"/>
      <point x="514.0" y="1341.186" type="qcurve" smooth="yes"/>
      <point x="620.92" y="1342.494"/>
      <point x="767.92" y="1451.878"/>
    </contour>
  </outline>
</glyph>
<glyph name="dotaccent" format="2">
  <advance width="1024"/>
  <unicode hex="02D9"/>
  <outline>
    <contour>
      <point x="378.89" y="1334.076" type="qcurve" smooth="yes"/>
      <point x="378.89" y="1397.304"/>
      <point x="447.464" y="1464.532"/>
      <point x="512.346" y="1464.532" type="qcurve" smooth="yes"/>
      <point x="573.228" y="1464.532"/>
      <point x="645.802" y="1392.612"/>
      <point x="645.802" y="1334.076" type="qcurve" smooth="yes"/>
      <point x="645.802" y="1271.194"/>
      <point x="577.92" y="1203.62"/>
      <point x="512.346" y="1203.62" type="qcurve" smooth="yes"/>
      <point x="451.464" y="1203.62"/>
      <point x="378.89" y="1275.194"/>
    </contour>
  </outline>
</glyph>
<glyph name="brevebelowcomb" format="2">
  <advance width="1024"/>
  <unicode hex="032E"/>
  <outline>
    <contour>
      <point x="806.46" y="-129.076" type="qcurve"/>
      <point x="899.806" y="-190.08" type="line"/>
      <point x="868.764" y="-296.692"/>
      <point x="665.342" y="-481.68399999999997"/>
      <point x="512.346" y="-481.68399999999997" type="qcurve" smooth="yes"/>
      <point x="369.814" y="-481.68399999999997"/>
      <point x="162.122" y="-314.152"/>
      <point x="124.848" y="-190.464" type="qcurve"/>
      <point x="224.502" y="-128.73" type="line"/>
      <point x="265.772" y="-196.92"/>
      <point x="411.118" y="-302.996"/>
      <point x="512.692" y="-302.996" type="qcurve" smooth="yes"/>
      <point x="620.92" y="-302.996"/>
      <point x="767.266" y="-199.498"/>
    </contour>
  </outline>
</glyph>
<glyph name="numeralsign" format="2">
  <advance width="438"/>
  <unicode hex="0374"/>
  <outline>
    <contour>
      <point x="147.32999999999998" y="973.358" type="line"/>
      <point x="47.334" y="1009.818" type="line"/>
      <point x="155.756" y="1500.0" type="line"/>
      <point x="343.128" y="1470.928" type="line"/>
      <point x="380.892" y="1419.354" type="line"/>
    </contour>
  </outline>
</glyph>
<glyph name="lownumeralsign" format="2">
  <advance width="438"/>
  <unicode hex="0375"/>
  <outline>
    <contour>
      <point x="233.88400000000001" y="-261.642" type="line"/>
      <point x="46.51199999999999" y="-232.57" type="line"/>
      <point x="8.747999999999998" y="-180.996" type="line"/>
      <point x="242.31" y="265.0" type="line"/>
      <point x="342.306" y="228.54" type="line"/>
    </contour>
  </outline>
</glyph>
<glyph name="dieresistonos" format="2">
  <advance width="1189"/>
  <unicode hex="0385"/>
  <anchor x="571.646" y="1017.3" name="_GRKtop"/>
  <outline>
    <contour>
      <point x="280.616" y="1164.38" type="qcurve" smooth="yes"/>
      <point x="222.08" y="1164.38"/>
      <point x="152.852" y="1232.608"/>
      <point x="152.852" y="1289.144" type="qcurve" smooth="yes"/>
      <point x="152.852" y="1349.68"/>
      <point x="218.734" y="1414.216"/>
      <point x="280.616" y="1414.216" type="qcurve" smooth="yes"/>
      <point x="339.152" y="1414.216"/>
      <point x="408.38" y="1344.988"/>
      <point x="408.38" y="1289.144" type="qcurve" smooth="yes"/>
      <point x="408.38" y="1229.262"/>
      <point x="343.152" y="1164.38"/>
    </contour>
    <contour>
      <point x="604.106" y="1153.114" type="line"/>
      <point x="498.764" y="1171.19" type="line"/>
      <point x="523.19" y="1637.33" type="line"/>
      <point x="712.946" y="1641.102" type="line"/>
      <point x="759.402" y="1596.95" type="line"/>
    </contour>
    <contour>
      <point x="908.364" y="1164.38" type="qcurve" smooth="yes"/>
      <point x="849.828" y="1164.38"/>
      <point x="780.6" y="1232.608"/>
      <point x="780.6" y="1289.144" type="qcurve" smooth="yes"/>
      <point x="780.6" y="1349.68"/>
      <point x="846.828" y="1414.216"/>
      <point x="908.364" y="1414.216" type="qcurve" smooth="yes"/>
      <point x="966.9" y="1414.216"/>
      <point x="1036.128" y="1344.988"/>
      <point x="1036.128" y="1289.144" type="qcurve" smooth="yes"/>
      <point x="1036.128" y="1229.262"/>
      <point x="971.246" y="1164.38"/>
    </contour>
  </outline>
</glyph>
<glyph name="Xi" format="2">
  <advance width="1463"/>
  <unicode hex="039E"/>
  <outline>
    <contour>
      <point x="119.00800000000001" y="0.0" type="line"/>
      <point x="71.81400000000001" y="477.858" type="line"/>
      <point x="202.118" y="477.858" type="line"/>
      <point x="276.08" y="217.2" type="line"/>
      <point x="723.308" y="213.50799999999998" type="line"/>
      <point x="1187.144" y="217.2" type="line"/>
      <point x="1261.106" y="477.858" type="line"/>
      <point x="1391.41" y="477.858" type="line"/>
      <point x="1344.216" y="0.0" type="line"/>
    </contour>
    <contour>
      <point x="353.414" y="511.08" type="line"/>
      <point x="353.414" y="964.034" type="line"/>
      <point x="465.178" y="964.034" type="line"/>
      <point x="500.87" y="816.958" type="line"/>
      <point x="726.768" y="805.228" type="line"/>
      <point x="962.354" y="816.958" type="line"/>
      <point x="998.046" y="964.034" type="line"/>
      <point x="1109.81" y="964.034" type="line"/>
      <point x="1109.81" y="511.08" type="line"/>
      <point x="998.046" y="511.08" type="line"/>
      <point x="962.354" y="660.578" type="line"/>
      <point x="726.768" y="672.308" type="line"/>
      <point x="500.87" y="660.578" type="line"/>
      <point x="465.178" y="511.08" type="line"/>
    </contour>
    <contour>
      <point x="115.738" y="1017.864" type="line"/>
      <point x="115.738" y="1500.346" type="line"/>
      <point x="1347.486" y="1500.346" type="line"/>
      <point x="1347.486" y="1017.864" type="line"/>
      <point x="1216.836" y="1017.864" type="line"/>
      <point x="1183.798" y="1277.298" type="line"/>
      <point x="724.0" y="1280.99" type="line"/>
      <point x="279.426" y="1277.298" type="line"/>
      <point x="246.388" y="1017.864" type="line"/>
    </contour>
  </outline>
</glyph>
<glyph name="Omega" format="2">
  <advance width="1682"/>
  <unicode hex="03A9"/>
  <anchor x="161.718" y="1500.0" name="GRKtopleft"/>
  <outline>
    <contour>
      <point x="49.342" y="0.0" type="line"/>
      <point x="7.957999999999999" y="395.3" type="line"/>
      <point x="145.292" y="395.3" type="line"/>
      <point x="214.292" y="148.3" type="line"/>
      <point x="546.794" y="142.84" type="line"/>
      <point x="557.102" y="255.722" type="line"/>
      <point x="353.22" y="317.11"/>
      <point x="92.646" y="619.958"/>
      <point x="92.646" y="872.38" type="qcurve" smooth="yes"/>
      <point x="92.646" y="1159.844"/>
      <point x="499.292" y="1522.422"/>
      <point x="840.702" y="1522.422" type="qcurve" smooth="yes"/>
      <point x="1201.078" y="1522.422"/>
      <point x="1588.104" y="1168.346"/>
      <point x="1588.104" y="883.688" type="qcurve" smooth="yes"/>
      <point x="1588.104" y="645.726"/>
      <point x="1314.45" y="316.57"/>
      <point x="1127.952" y="258.338" type="qcurve"/>
      <point x="1140.876" y="142.84" type="line"/>
      <point x="1467.112" y="148.3" type="line"/>
      <point x="1536.766" y="395.3" type="line"/>
      <point x="1674.1" y="395.3" type="line"/>
      <point x="1632.716" y="0.0" type="line"/>
      <point x="969.508" y="0.0" type="line"/>
      <point x="939.508" y="358.786" type="line"/>
      <point x="1124.722" y="407.794"/>
      <point x="1281.886" y="671.152"/>
      <point x="1281.886" y="884.57" type="qcurve" smooth="yes"/>
      <point x="1281.886" y="1123.494"/>
      <point x="1046.486" y="1372.042"/>
      <point x="840.048" y="1372.042" type="qcurve" smooth="yes"/>
      <point x="632.61" y="1371.388"/>
      <point x="398.864" y="1123.148"/>
      <point x="398.864" y="873.452" type="qcurve" smooth="yes"/>
      <point x="398.864" y="657.418"/>
      <point x="577.146" y="405.178"/>
      <point x="744.702" y="358.786" type="qcurve"/>
      <point x="714.702" y="0.0" type="line"/>
    </contour>
  </outline>
</glyph>
<glyph name="gamma" format="2">
  <advance width="1138"/>
  <unicode hex="03B3"/>
  <guideline x="673.0" y="-40.0" angle="0" identifier="g2zcNzszsg"/>
  <outline>
    <contour>
      <point x="489.574" y="-480.0" type="line"/>
      <point x="451.806" y="-445.388" type="line"/>
      <point x="487.11" y="40.57" type="line"/>
      <point x="590.842" y="40.57" type="line"/>
      <point x="746.158" y="559.106" type="line"/>
      <point x="857.744" y="999.722" type="line"/>
      <point x="1076.872" y="1017.992" type="line"/>
      <point x="1114.9859999999999" y="983.38" type="line"/>
      <point x="916.91" y="520.182" type="line"/>
      <point x="668.226" y="-137.574" type="line"/>
      <point x="527.418" y="-138.266" type="line"/>
      <point x="296.114" y="473.734" type="line"/>
      <point x="169.924" y="797.966" type="line" smooth="yes"/>
      <point x="153.696" y="833.962"/>
      <point x="123.738" y="858.498"/>
      <point x="85.47200000000001" y="866.228" type="qcurve" smooth="yes"/>
      <point x="6.54" y="882.422" type="line"/>
      <point x="6.54" y="989.916" type="line"/>
      <point x="286.192" y="1024.262" type="line"/>
      <point x="342.264" y="1024.608"/>
      <point x="407.412" y="964.46"/>
      <point x="433.45" y="883.076" type="qcurve" smooth="yes"/>
      <point x="543.8" y="559.22" type="line"/>
      <point x="688.074" y="126.866" type="line"/>
      <point x="711.534" y="126.866" type="line"/>
      <point x="742.142" y="-457.962" type="line"/>
    </contour>
  </outline>
</glyph>
<glyph name="xi" format="2">
  <advance width="1030"/>
  <unicode hex="03BE"/>
  <outline>
    <contour>
      <point x="805.158" y="-313.0" type="line"/>
      <point x="767.314" y="-119.388" type="line" smooth="yes"/>
      <point x="755.968" y="-62.156"/>
      <point x="719.778" y="-35.156"/>
      <point x="672.98" y="-32.118" type="qcurve" smooth="yes"/>
      <point x="630.676" y="-29.118000000000002" type="line" smooth="yes"/>
      <point x="344.848" y="-8.156"/>
      <point x="66.734" y="194.84"/>
      <point x="66.734" y="367.072" type="qcurve" smooth="yes"/>
      <point x="66.734" y="583.41"/>
      <point x="496.196" y="839.68"/>
      <point x="820.314" y="895.95" type="qcurve" smooth="yes"/>
      <point x="885.8" y="907.14" type="line"/>
      <point x="919.72" y="866.988" type="line"/>
      <point x="856.458" y="641.24" type="line"/>
      <point x="817.074" y="646.24" type="line" smooth="yes"/>
      <point x="442.28" y="693.662"/>
      <point x="144.848" y="865.704"/>
      <point x="144.848" y="1019.16" type="qcurve" smooth="yes"/>
      <point x="144.848" y="1130.894"/>
      <point x="280.654" y="1300.396"/>
      <point x="437.464" y="1341.32" type="qcurve"/>
      <point x="438.118" y="1322.94" type="line"/>
      <point x="138.244" y="1319.94" type="line"/>
      <point x="110.206" y="1353.94" type="line"/>
      <point x="137.97" y="1534.0" type="line"/>
      <point x="987.648" y="1514.0" type="line"/>
      <point x="987.648" y="1343.4" type="line"/>
      <point x="654.9639999999999" y="1319.054"/>
      <point x="389.614" y="1174.97"/>
      <point x="389.614" y="1039.16" type="qcurve" smooth="yes"/>
      <point x="389.614" y="940.696"/>
      <point x="567.538" y="822.426"/>
      <point x="816.322" y="775.0" type="qcurve"/>
      <point x="803.938" y="732.0" type="line"/>
      <point x="537.77" y="705.768"/>
      <point x="347.41999999999996" y="538.448"/>
      <point x="347.41999999999996" y="422.866" type="qcurve"/>
      <point x="347.41999999999996" y="313.634"/>
      <point x="524.534" y="190.128"/>
      <point x="719.732" y="179.052" type="qcurve" smooth="yes"/>
      <point x="806.082" y="174.36" type="line" smooth="yes"/>
      <point x="892.5" y="169.284"/>
      <point x="963.454" y="96.44399999999999"/>
      <point x="962.53" y="37.566" type="qcurve"/>
      <point x="911.96" y="-313.0" type="line"/>
    </contour>
  </outline>
</glyph>
<glyph name="rho" format="2">
  <advance width="1274"/>
  <unicode hex="03C1"/>
  <outline>
    <contour>
      <point x="144.46" y="-480.0" type="line"/>
      <point x="106.692" y="-445.734" type="line"/>
      <point x="116.692" y="110.0" type="line"/>
      <point x="116.692" y="423.0" type="line" smooth="yes"/>
      <point x="116.692" y="729.308"/>
      <point x="402.292" y="1040.684"/>
      <point x="671.808" y="1040.684" type="qcurve" smooth="yes"/>
      <point x="943.062" y="1040.684"/>
      <point x="1211.202" y="756.338"/>
      <point x="1211.202" y="525.764" type="qcurve" smooth="yes"/>
      <point x="1211.202" y="297.612"/>
      <point x="941.598" y="-11.0"/>
      <point x="703.758" y="-11.654" type="qcurve" smooth="yes"/>
      <point x="568.26" y="-12.308"/>
      <point x="346.03999999999996" y="93.768"/>
      <point x="292.154" y="177.578" type="qcurve"/>
      <point x="292.154" y="274.73" type="line"/>
      <point x="354.724" y="274.73" type="line"/>
      <point x="408.728" y="197.452"/>
      <point x="562.85" y="116.95"/>
      <point x="653.854" y="116.95" type="qcurve" smooth="yes"/>
      <point x="768.474" y="116.95"/>
      <point x="912.33" y="315.878"/>
      <point x="912.33" y="506.0" type="qcurve" smooth="yes"/>
      <point x="912.33" y="695.194"/>
      <point x="773.242" y="874.97"/>
      <point x="644.428" y="874.97" type="qcurve" smooth="yes"/>
      <point x="512.766" y="874.97"/>
      <point x="385.644" y="676.076"/>
      <point x="388.298" y="428.3" type="qcurve"/>
      <point x="390.99" y="103.08" type="line"/>
      <point x="406.83799999999997" y="-458.616" type="line"/>
    </contour>
  </outline>
</glyph>
<glyph name="Nje" format="2">
  <advance width="2336"/>
  <unicode hex="040A"/>
  <outline>
    <contour>
      <point x="68.16" y="0.0" type="line"/>
      <point x="753.428" y="0.0" type="line"/>
      <point x="753.428" y="110.38" type="line"/>
      <point x="556.5" y="145.38" type="line"/>
      <point x="554.5" y="754.0" type="line"/>
      <point x="556.5" y="1341.62" type="line"/>
      <point x="753.428" y="1375.62" type="line"/>
      <point x="753.428" y="1500.0" type="line"/>
      <point x="68.16" y="1500.0" type="line"/>
      <point x="68.16" y="1375.62" type="line"/>
      <point x="265.78" y="1341.62" type="line"/>
      <point x="267.78" y="754.0" type="line"/>
      <point x="265.78" y="145.38" type="line"/>
      <point x="68.16" y="110.38" type="line"/>
    </contour>
    <contour>
      <point x="411.14" y="747.582" type="line"/>
      <point x="885.672" y="747.582" type="line"/>
      <point x="1342.972" y="747.582" type="line"/>
      <point x="1342.972" y="883.422" type="line"/>
      <point x="885.672" y="875.422" type="line"/>
      <point x="411.14" y="883.422" type="line"/>
    </contour>
    <contour>
      <point x="999.992" y="0.0" type="line"/>
      <point x="1775.552" y="0.0" type="line" smooth="yes"/>
      <point x="2029.6391428571478" y="0.0"/>
      <point x="2287.126" y="254.924"/>
      <point x="2287.126" y="455.734" type="qcurve" smooth="yes"/>
      <point x="2287.126" y="672.0555322939917"/>
      <point x="2025.016" y="883.422"/>
      <point x="1757.644" y="883.422" type="qcurve" smooth="yes"/>
      <point x="1494.602" y="883.422" type="line"/>
      <point x="1485.948" y="896.038" type="line"/>
      <point x="1488.3319999999999" y="1341.62" type="line"/>
      <point x="1692.18" y="1375.62" type="line"/>
      <point x="1692.18" y="1500.0" type="line"/>
      <point x="999.992" y="1500.0" type="line"/>
      <point x="999.992" y="1375.62" type="line"/>
      <point x="1197.612" y="1341.62" type="line"/>
      <point x="1199.612" y="742.228" type="line"/>
      <point x="1197.612" y="145.38" type="line"/>
      <point x="999.992" y="110.38" type="line"/>
    </contour>
    <contour>
      <point x="1486.602" y="744.658" type="line"/>
      <point x="1495.602" y="757.62" type="line"/>
      <point x="1682.96" y="757.62" type="line" smooth="yes"/>
      <point x="1821.854" y="757.62"/>
      <point x="1986.596" y="613.2898972602844"/>
      <point x="1986.596" y="458.156" type="qcurve" smooth="yes"/>
      <point x="1986.596" y="290.194"/>
      <point x="1827.048" y="122.532"/>
      <point x="1669.888" y="122.532" type="qcurve" smooth="yes"/>
      <point x="1517.834" y="122.532" type="line"/>
      <point x="1487.294" y="143.84" type="line"/>
    </contour>
  </outline>
</glyph>
<glyph name="Ghe" format="2">
  <advance width="1220"/>
  <unicode hex="0413"/>
  <outline>
    <contour>
      <point x="68.16" y="0.0" type="line"/>
      <point x="68.16" y="110.38" type="line"/>
      <point x="265.78" y="146.688" type="line"/>
      <point x="267.78" y="757.924" type="line"/>
      <point x="265.78" y="1341.62" type="line"/>
      <point x="68.16" y="1375.62" type="line"/>
      <point x="68.16" y="1500.0" type="line"/>
      <point x="1175.892" y="1500.0" type="line"/>
      <point x="1175.892" y="1112.244" type="line"/>
      <point x="1049.63" y="1112.244" type="line"/>
      <point x="1013.246" y="1368.16" type="line"/>
      <point x="595.496" y="1368.16" type="line"/>
      <point x="556.846" y="1346.776" type="line"/>
      <point x="556.922" y="760.0" type="line"/>
      <point x="558.922" y="143.418" type="line"/>
      <point x="771.006" y="110.726" type="line"/>
      <point x="771.006" y="0.0" type="line"/>
    </contour>
  </outline>
</glyph>
<glyph name="Ka" format="2">
  <advance width="1559"/>
  <unicode hex="041A"/>
  <guideline x="480.0" y="796.0" angle="90.0" identifier="LxfLwWU0sJ"/>
  <outline>
    <contour>
      <point x="68.16" y="0.0" type="line"/>
      <point x="68.16" y="110.38" type="line"/>
      <point x="265.78" y="145.38" type="line"/>
      <point x="267.78" y="754.0" type="line"/>
      <point x="265.78" y="1341.62" type="line"/>
      <point x="68.16" y="1375.62" type="line"/>
      <point x="68.16" y="1500.0" type="line"/>
      <point x="746.888" y="1500.0" type="line"/>
      <point x="746.888" y="1375.62" type="line"/>
      <point x="556.5" y="1341.62" type="line"/>
      <point x="554.5" y="754.0" type="line"/>
      <point x="556.5" y="145.38" type="line"/>
      <point x="743.048" y="110.38" type="line"/>
      <point x="743.048" y="0.0" type="line"/>
    </contour>
    <contour>
      <point x="411.14" y="709.08" type="line"/>
      <point x="411.14" y="851.46" type="line"/>
      <point x="718.28" y="846.768" type="line"/>
      <point x="1118.158" y="1333.156" type="line"/>
      <point x="977.732" y="1375.966" type="line"/>
      <point x="977.732" y="1500.0" type="line"/>
      <point x="1483.074" y="1500.0" type="line"/>
      <point x="1483.074" y="1375.966" type="line"/>
      <point x="1304.728" y="1333.156" type="line"/>
      <point x="822.652" y="762.646" type="line"/>
      <point x="764.736" y="709.08" type="line"/>
    </contour>
    <contour>
      <point x="711.36" y="720.498" type="line"/>
      <point x="905.632" y="920.77" type="line"/>
      <point x="1442.176" y="145.38" type="line"/>
      <point x="1582.568" y="110.38" type="line"/>
      <point x="1582.568" y="0.0" type="line"/>
      <point x="968.604" y="0.0" type="line"/>
      <point x="968.604" y="110.38" type="line"/>
      <point x="1116.19" y="145.38" type="line"/>
    </contour>
  </outline>
</glyph>
<glyph name="Pe" format="2">
  <advance width="1793"/>
  <unicode hex="041F"/>
  <outline>
    <contour>
      <point x="1236.506" y="1341.544" type="line"/>
      <point x="1191.662" y="1368.16" type="line"/>
      <point x="601.69" y="1368.16" type="line"/>
      <point x="556.846" y="1341.544" type="line"/>
      <point x="554.846" y="754.0" type="line"/>
      <point x="556.846" y="145.38" type="line"/>
      <point x="753.774" y="110.38" type="line"/>
      <point x="753.774" y="0.0" type="line"/>
      <point x="68.16" y="0.0" type="line"/>
      <point x="68.16" y="110.38" type="line"/>
      <point x="265.78" y="145.38" type="line"/>
      <point x="267.78" y="754.0" type="line"/>
      <point x="265.78" y="1341.62" type="line"/>
      <point x="68.16" y="1375.62" type="line"/>
      <point x="68.16" y="1500.0" type="line"/>
      <point x="1725.192" y="1500.0" type="line"/>
      <point x="1725.192" y="1375.62" type="line"/>
      <point x="1527.572" y="1341.62" type="line"/>
      <point x="1525.572" y="754.0" type="line"/>
      <point x="1527.572" y="145.38" type="line"/>
      <point x="1725.192" y="110.38" type="line"/>
      <point x="1725.192" y="0.0" type="line"/>
      <point x="1039.578" y="0.0" type="line"/>
      <point x="1039.578" y="110.38" type="line"/>
      <point x="1236.506" y="145.38" type="line"/>
      <point x="1238.506" y="754.0" type="line"/>
    </contour>
  </outline>
</glyph>
<glyph name="Sha" format="2">
  <advance width="2493"/>
  <unicode hex="0428"/>
  <outline>
    <contour>
      <point x="1392.172" y="151.916" type="line"/>
      <point x="1437.016" y="125.3" type="line"/>
      <point x="1891.588" y="125.3" type="line"/>
      <point x="1936.432" y="151.916" type="line"/>
      <point x="1938.432" y="746.0" type="line"/>
      <point x="1936.432" y="1346.118" type="line"/>
      <point x="1749.884" y="1380.464" type="line"/>
      <point x="1749.884" y="1500.0" type="line"/>
      <point x="2425.118" y="1500.0" type="line"/>
      <point x="2425.118" y="1380.464" type="line"/>
      <point x="2227.498" y="1346.118" type="line"/>
      <point x="2225.498" y="746.0" type="line"/>
      <point x="2227.498" y="149.878" type="line"/>
      <point x="2425.118" y="115.224" type="line"/>
      <point x="2425.118" y="0.0" type="line"/>
      <point x="68.16" y="0.0" type="line"/>
      <point x="68.16" y="115.224" type="line"/>
      <point x="265.78" y="149.878" type="line"/>
      <point x="267.78" y="746.0" type="line"/>
      <point x="265.78" y="1346.118" type="line"/>
      <point x="68.16" y="1380.464" type="line"/>
      <point x="68.16" y="1500.0" type="line"/>
      <point x="743.394" y="1500.0" type="line"/>
      <point x="743.394" y="1380.464" type="line"/>
      <point x="556.846" y="1346.118" type="line"/>
      <point x="554.846" y="746.0" type="line"/>
      <point x="556.846" y="151.916" type="line"/>
      <point x="601.69" y="125.3" type="line"/>
      <point x="1056.262" y="125.3" type="line"/>
      <point x="1101.106" y="151.916" type="line"/>
      <point x="1103.106" y="751.232" type="line"/>
      <point x="1101.106" y="1344.156" type="line"/>
      <point x="908.018" y="1377.848" type="line"/>
      <point x="908.018" y="1500.0" type="line"/>
      <point x="1585.26" y="1500.0" type="line"/>
      <point x="1585.26" y="1377.848" type="line"/>
      <point x="1392.172" y="1344.156" type="line"/>
      <point x="1390.172" y="751.232" type="line"/>
    </contour>
  </outline>
</glyph>
<glyph name="Soft" format="2">
  <advance width="1404"/>
  <unicode hex="042C"/>
  <outline>
    <contour>
      <point x="564.462" y="778.658" type="line"/>
      <point x="555.116" y="765.696" type="line"/>
      <point x="556.462" y="143.84" type="line"/>
      <point x="587.002" y="122.532" type="line"/>
      <point x="738.402" y="122.532" type="line" smooth="yes"/>
      <point x="895.562" y="122.532"/>
      <point x="1055.11" y="298.118"/>
      <point x="1055.11" y="468.156" type="qcurve" smooth="yes"/>
      <point x="1055.11" y="625.578"/>
      <point x="890.3679999999999" y="778.658"/>
      <point x="751.474" y="778.658" type="qcurve" smooth="yes"/>
    </contour>
    <contour>
      <point x="554.462" y="917.076" type="line"/>
      <point x="563.116" y="904.46" type="line"/>
      <point x="826.158" y="904.46" type="line" smooth="yes"/>
      <point x="1093.53" y="904.46"/>
      <point x="1355.6399999999999" y="684.308"/>
      <point x="1355.6399999999999" y="465.734" type="qcurve" smooth="yes"/>
      <point x="1355.6399999999999" y="263.54"/>
      <point x="1101.366" y="0.0"/>
      <point x="850.986" y="0.0" type="qcurve" smooth="yes"/>
      <point x="68.16" y="0.0" type="line"/>
      <point x="68.16" y="110.38" type="line"/>
      <point x="265.78" y="145.38" type="line"/>
      <point x="267.78" y="742.228" type="line"/>
      <point x="265.78" y="1341.62" type="line"/>
      <point x="68.16" y="1375.62" type="line"/>
      <point x="68.16" y="1500.0" type="line"/>
      <point x="760.694" y="1500.0" type="line"/>
      <point x="760.694" y="1375.62" type="line"/>
      <point x="556.846" y="1341.62" type="line"/>
    </contour>
  </outline>
</glyph>
<glyph name="Ecyr" format="2">
  <advance width="1544"/>
  <unicode hex="042D"/>
  <guideline x="1147.0" y="753.0" angle="90.0" identifier="Ovo68woMtl"/>
  <guideline x="211.0" y="787.0" angle="90.0" identifier="BltxzGcBtl"/>
  <outline>
    <contour>
      <point x="683.16" y="-28.924" type="qcurve" smooth="yes"/>
      <point x="551.544" y="-28.924"/>
      <point x="362.038" y="31.346"/>
      <point x="308.422" y="68.038" type="qcurve"/>
      <point x="277.114" y="-7.194000000000001" type="line"/>
      <point x="162.7" y="-7.194000000000001" type="line"/>
      <point x="162.7" y="464.608" type="line"/>
      <point x="296.768" y="464.608" type="line"/>
      <point x="327.384" y="325.954" type="line" smooth="yes"/>
      <point x="351.346" y="216.992"/>
      <point x="515.008" y="112.916"/>
      <point x="661.856" y="112.916" type="qcurve" smooth="yes"/>
      <point x="915.838" y="112.916"/>
      <point x="1156.546" y="422.236"/>
      <point x="1156.546" y="748.46" type="qcurve" smooth="yes"/>
      <point x="1156.546" y="1041.262"/>
      <point x="910.104" y="1379.89"/>
      <point x="673.126" y="1379.89" type="qcurve" smooth="yes"/>
      <point x="529.164" y="1379.89"/>
      <point x="366.848" y="1278.7"/>
      <point x="339.962" y="1166.852" type="qcurve" smooth="yes"/>
      <point x="309.346" y="1034.738" type="line"/>
      <point x="175.278" y="1034.738" type="line"/>
      <point x="175.278" y="1500.0" type="line"/>
      <point x="289.692" y="1500.0" type="line"/>
      <point x="321.0" y="1424.768" type="line"/>
      <point x="379.27" y="1464.114"/>
      <point x="565.62" y="1520.0"/>
      <point x="713.772" y="1520.0" type="qcurve" smooth="yes"/>
      <point x="1062.962" y="1520.0"/>
      <point x="1469.03" y="1097.692"/>
      <point x="1469.03" y="754.076" type="qcurve" smooth="yes"/>
      <point x="1469.03" y="425.076"/>
      <point x="1043.89" y="-28.924"/>
    </contour>
    <contour>
      <point x="1312.788" y="707.81" type="line"/>
      <point x="639.054" y="697.81" type="line"/>
      <point x="606.822" y="541.962" type="line"/>
      <point x="485.058" y="541.962" type="line"/>
      <point x="485.058" y="981.076" type="line"/>
      <point x="606.822" y="981.076" type="line"/>
      <point x="639.054" y="827.65" type="line"/>
      <point x="1312.788" y="817.65" type="line"/>
    </contour>
  </outline>
</glyph>
<glyph name="Yu" format="2">
  <advance width="2435"/>
  <unicode hex="042E"/>
  <guideline x="732.0" y="785.0" angle="90.0" identifier="6nH5tb4DEh"/>
  <outline>
    <contour>
      <point x="68.16" y="0.0" type="line"/>
      <point x="68.16" y="110.38" type="line"/>
      <point x="265.78" y="145.38" type="line"/>
      <point x="267.78" y="754.0" type="line"/>
      <point x="265.78" y="1341.62" type="line"/>
      <point x="68.16" y="1375.62" type="line"/>
      <point x="68.16" y="1500.0" type="line"/>
      <point x="753.428" y="1500.0" type="line"/>
      <point x="753.428" y="1375.62" type="line"/>
      <point x="556.5" y="1341.62" type="line"/>
      <point x="554.5" y="754.0" type="line"/>
      <point x="556.5" y="145.38" type="line"/>
      <point x="753.428" y="110.38" type="line"/>
      <point x="753.428" y="0.0" type="line"/>
    </contour>
    <contour>
      <point x="411.14" y="709.08" type="line"/>
      <point x="411.14" y="851.46" type="line"/>
      <point x="959.492" y="843.46" type="line"/>
      <point x="959.492" y="709.08" type="line"/>
    </contour>
    <contour>
      <point x="803.25" y="739.076" type="qcurve" smooth="yes"/>
      <point x="803.25" y="1070.076"/>
      <point x="1233.2" y="1522.422"/>
      <point x="1581.96" y="1522.422" type="qcurve" smooth="yes"/>
      <point x="1931.066" y="1522.422"/>
      <point x="2360.67" y="1099.076"/>
      <point x="2360.67" y="754.076" type="qcurve" smooth="yes"/>
      <point x="2360.67" y="425.076"/>
      <point x="1935.412" y="-28.924"/>
      <point x="1586.306" y="-28.924" type="qcurve" smooth="yes"/>
      <point x="1242.086" y="-28.924"/>
      <point x="803.25" y="398.076"/>
    </contour>
    <contour>
      <point x="1115.734" y="773.768" type="qcurve" smooth="yes"/>
      <point x="1115.734" y="465.198"/>
      <point x="1376.077957028869" y="115.532"/>
      <point x="1583.96" y="115.532" type="qcurve" smooth="yes"/>
      <point x="1810.7723405868703" y="115.532"/>
      <point x="2048.532" y="423.198"/>
      <point x="2048.532" y="748.46" type="qcurve" smooth="yes"/>
      <point x="2048.532" y="1039.03"/>
      <point x="1793.8124556540474" y="1372.042"/>
      <point x="1583.268" y="1372.042" type="qcurve" smooth="yes"/>
      <point x="1356.4585357056753" y="1372.042"/>
      <point x="1115.734" y="1065.456"/>
    </contour>
  </outline>
</glyph>
<glyph name="be" format="2">
  <advance width="1269"/>
  <unicode hex="0431"/>
  <outline>
    <contour>
      <point x="264.922" y="709.438" type="line"/>
      <point x="328.348" y="846.164"/>
      <point x="571.454" y="1013.772"/>
      <point x="749.598" y="1013.772" type="qcurve" smooth="yes"/>
      <point x="958.556" y="1013.772"/>
      <point x="1208.358" y="750.886"/>
      <point x="1208.358" y="519.62" type="qcurve" smooth="yes"/>
      <point x="1208.358" y="267.351272727257"/>
      <point x="911.8" y="-23.73"/>
      <point x="650.01" y="-23.73" type="qcurve" smooth="yes"/>
      <point x="364.642" y="-23.73"/>
      <point x="70.0" y="299.266"/>
      <point x="70.0" y="625.73" type="qcurve" smooth="yes"/>
      <point x="70.0" y="977.11"/>
      <point x="418.73199999999997" y="1404.498"/>
      <point x="795.59" y="1456.304" type="qcurve" smooth="yes"/>
      <point x="983.838" y="1484.038"/>
      <point x="1060.408" y="1511.616"/>
      <point x="1072.792" y="1537.0" type="qcurve"/>
      <point x="1172.514" y="1537.0" type="line"/>
      <point x="1164.282" y="1389.096"/>
      <point x="1010.362" y="1235.378"/>
      <point x="802.9359999999999" y="1217.066" type="qcurve" smooth="yes"/>
      <point x="645.4" y="1204.64"/>
      <point x="429.41999999999996" y="1190.422"/>
      <point x="375.884" y="1132.532" type="qcurve" smooth="yes"/>
      <point x="333.6313812504752" y="1087.779568281901"/>
      <point x="311.9943134156032" y="875.0905501206324"/>
      <point x="311.344" y="746.662" type="qcurve"/>
      <point x="363.644" y="746.662" type="line"/>
      <point x="358.86561102555095" y="663.5165727338284"/>
      <point x="357.952" y="607.354"/>
      <point x="357.952" y="531.118" type="qcurve" smooth="yes"/>
      <point x="357.952" y="306.89"/>
      <point x="515.9639999999999" y="97.342"/>
      <point x="647.588" y="97.342" type="qcurve" smooth="yes"/>
      <point x="772.516" y="97.342"/>
      <point x="909.486" y="283.4374942528672"/>
      <point x="909.486" y="493.928" type="qcurve" smooth="yes"/>
      <point x="909.486" y="668.624"/>
      <point x="776.976" y="850.75"/>
      <point x="655.356" y="850.75" type="qcurve" smooth="yes"/>
      <point x="533.04" y="850.75"/>
      <point x="370.416" y="729.016"/>
      <point x="319.066" y="626.13" type="qcurve"/>
    </contour>
  </outline>
</glyph>
<glyph name="ve" format="2">
  <advance width="1180"/>
  <unicode hex="0432"/>
  <guideline x="302.0" y="625.0" angle="90.0" identifier="FqbstdQzDn"/>
  <guideline x="953.346" y="653.648" angle="90.0" identifier="zbbKiP68t3"/>
  <outline>
    <contour>
      <point x="720.096" y="0.0" type="qcurve" smooth="yes"/>
      <point x="64.43" y="0.0" type="line"/>
      <point x="64.43" y="93.84" type="line"/>
      <point x="212.43" y="128.84" type="line"/>
      <point x="214.43" y="508.65" type="line"/>
      <point x="212.43" y="888.46" type="line"/>
      <point x="64.43" y="923.46" type="line"/>
      <point x="64.43" y="1017.3" type="line"/>
      <point x="719.172" y="1017.3" type="line" smooth="yes"/>
      <point x="892.244" y="1017.3"/>
      <point x="1062.97" y="893.3201111111188"/>
      <point x="1062.97" y="785.11" type="qcurve" smooth="yes"/>
      <point x="1062.97" y="696.4953333333218"/>
      <point x="960.4903219867538" y="571.9341630054282"/>
      <point x="861.484" y="549.498" type="qcurve"/>
      <point x="861.484" y="545.498" type="line"/>
      <point x="978.0076257727212" y="527.8942374227348"/>
      <point x="1119.78" y="401.574888030872"/>
      <point x="1119.78" y="288.076" type="qcurve" smooth="yes"/>
      <point x="1119.78" y="149.84564745762358"/>
      <point x="912.3199999999999" y="0.0"/>
    </contour>
    <contour>
      <point x="351.406" y="586.456" type="line"/>
      <point x="617.702" y="586.456" type="line" smooth="yes"/>
      <point x="707.858" y="586.456"/>
      <point x="794.862" y="673.38"/>
      <point x="794.862" y="748.152" type="qcurve" smooth="yes"/>
      <point x="794.862" y="826.616"/>
      <point x="708.474" y="897.924"/>
      <point x="623.318" y="897.924" type="qcurve" smooth="yes"/>
      <point x="490.728" y="897.924" type="line"/>
      <point x="488.382" y="508.65" type="line"/>
      <point x="490.728" y="120.068" type="line"/>
      <point x="649.74" y="120.068" type="line" smooth="yes"/>
      <point x="747.744" y="120.068"/>
      <point x="847.672" y="208.148"/>
      <point x="847.672" y="298.304" type="qcurve" smooth="yes"/>
      <point x="847.672" y="382.46"/>
      <point x="753.976" y="470.886"/>
      <point x="662.8199999999999" y="470.886" type="qcurve" smooth="yes"/>
      <point x="351.406" y="470.886" type="line"/>
    </contour>
  </outline>
</glyph>
<glyph name="ze" format="2">
  <advance width="1063"/>
  <unicode hex="0437"/>
  <outline>
    <contour>
      <point x="502.422" y="105.3" type="qcurve" smooth="yes"/>
      <point x="613.0" y="105.3"/>
      <point x="731.35" y="200.456"/>
      <point x="731.35" y="293.266" type="qcurve" smooth="yes"/>
      <point x="731.35" y="370.8242926829364"/>
      <point x="630.848" y="453.654"/>
      <point x="531.81" y="453.308" type="qcurve" smooth="yes"/>
      <point x="360.456" y="452.616" type="line"/>
      <point x="360.456" y="573.03" type="line"/>
      <point x="504.65" y="571.992" type="line" smooth="yes"/>
      <point x="602.6559378414042" y="571.3782495363032"/>
      <point x="689.658" y="664.8119436917837"/>
      <point x="689.658" y="739.65" type="qcurve" smooth="yes"/>
      <point x="689.658" y="823.498"/>
      <point x="598.658" y="911.346"/>
      <point x="502.696" y="911.346" type="qcurve" smooth="yes"/>
      <point x="400.346" y="911.346"/>
      <point x="286.266" y="818.304"/>
      <point x="265.38" y="737.456" type="qcurve" smooth="yes"/>
      <point x="248.726" y="671.266" type="line"/>
      <point x="133.734" y="671.266" type="line"/>
      <point x="133.734" y="1022.262" type="line"/>
      <point x="244.304" y="1022.262" type="line"/>
      <point x="267.65" y="972.608" type="line"/>
      <point x="308.494" y="1001.684"/>
      <point x="457.908" y="1041.03"/>
      <point x="563.174" y="1041.03" type="qcurve" smooth="yes"/>
      <point x="757.47" y="1041.03"/>
      <point x="957.766" y="900.684"/>
      <point x="957.766" y="775.11" type="qcurve" smooth="yes"/>
      <point x="957.766" y="684.9810457299998"/>
      <point x="849.2678710736345" y="558.748826788728"/>
      <point x="745.162" y="535.034" type="qcurve"/>
      <point x="745.162" y="531.034" type="line"/>
      <point x="871.5137536157806" y="515.3894522134472"/>
      <point x="1003.458" y="388.8223319501958"/>
      <point x="1003.458" y="282.228" type="qcurve" smooth="yes"/>
      <point x="1003.458" y="137.4777763975108"/>
      <point x="760.55" y="-24.384"/>
      <point x="548.756" y="-24.384" type="qcurve" smooth="yes"/>
      <point x="433.756" y="-24.384"/>
      <point x="288.03" y="18.886"/>
      <point x="250.456" y="44.038" type="qcurve"/>
      <point x="227.11" y="-5.616" type="line"/>
      <point x="116.54" y="-5.616" type="line"/>
      <point x="116.54" y="345.38" type="line"/>
      <point x="231.532" y="345.38" type="line"/>
      <point x="248.532" y="277.806" type="line" smooth="yes"/>
      <point x="269.764" y="195.266"/>
      <point x="381.764" y="105.3"/>
    </contour>
  </outline>
</glyph>
<glyph name="ka" format="2">
  <advance width="1306"/>
  <unicode hex="043A"/>
  <guideline x="241.0" y="553.0" angle="90.0" identifier="lmgRx0QBdK"/>
  <guideline x="786.0" y="880.0" angle="0" identifier="nFoPGEsufr"/>
  <outline>
    <contour>
      <point x="214.43" y="508.65" type="line"/>
      <point x="212.43" y="888.46" type="line"/>
      <point x="64.43" y="923.46" type="line"/>
      <point x="64.43" y="1017.3" type="line"/>
      <point x="621.462" y="1017.3" type="line"/>
      <point x="621.462" y="923.46" type="line"/>
      <point x="490.728" y="888.46" type="line"/>
      <point x="488.382" y="508.65" type="line"/>
      <point x="490.728" y="128.84" type="line"/>
      <point x="621.462" y="93.84" type="line"/>
      <point x="621.462" y="0.0" type="line"/>
      <point x="64.43" y="0.0" type="line"/>
      <point x="64.43" y="93.84" type="line"/>
      <point x="212.43" y="128.84" type="line"/>
    </contour>
    <contour>
      <point x="604.93" y="490.92" type="line"/>
      <point x="790.97" y="665.234" type="line"/>
      <point x="1180.358" y="128.84" type="line"/>
      <point x="1296.974" y="93.84" type="line"/>
      <point x="1296.974" y="0.0" type="line"/>
      <point x="885.524" y="0.0" type="line"/>
      <point x="872.14" y="89.38" type="line"/>
      <point x="881.14" y="121.38" type="line"/>
    </contour>
    <contour>
      <point x="351.406" y="582.57" type="line"/>
      <point x="619.504" y="579.916" type="line"/>
      <point x="889.276" y="880.0" type="line"/>
      <point x="748.504" y="910.0" type="line"/>
      <point x="748.504" y="1017.3" type="line"/>
      <point x="1233.256" y="1017.3" type="line"/>
      <point x="1233.256" y="910.0" type="line"/>
      <point x="1067.298" y="875.0" type="line"/>
      <point x="645.234" y="459.848" type="line"/>
      <point x="351.406" y="458.194" type="line"/>
    </contour>
  </outline>
</glyph>
<glyph name="te" format="2">
  <advance width="1135"/>
  <unicode hex="0442"/>
  <guideline x="302.0" y="625.0" angle="90.0" identifier="0glbwjr6f1"/>
  <guideline x="953.0" y="554.0" angle="90.0" identifier="41A0uQDzZV"/>
  <guideline x="627.0" y="553.0" angle="90.0" identifier="rA3XBl1QkZ"/>
  <outline>
    <contour>
      <point x="859.454" y="93.84" type="line"/>
      <point x="859.454" y="0.0" type="line"/>
      <point x="275.122" y="0.0" type="line"/>
      <point x="275.122" y="93.84" type="line"/>
      <point x="427.966" y="128.84" type="line"/>
      <point x="430.312" y="508.65" type="line"/>
      <point x="427.966" y="892.924" type="line"/>
      <point x="222.608" y="892.924" type="line"/>
      <point x="165.882" y="648.852" type="line"/>
      <point x="47.89" y="648.852" type="line"/>
      <point x="51.35" y="1017.3" type="line"/>
      <point x="1083.572" y="1017.3" type="line"/>
      <point x="1087.032" y="648.852" type="line"/>
      <point x="969.04" y="648.852" type="line"/>
      <point x="912.314" y="892.924" type="line"/>
      <point x="706.61" y="892.924" type="line"/>
      <point x="704.61" y="508.65" type="line"/>
      <point x="706.61" y="128.84" type="line"/>
    </contour>
  </outline>
</glyph>
<glyph name="tse" format="2">
  <advance width="1410"/>
  <unicode hex="0446"/>
  <guideline x="302.0" y="625.0" angle="90.0" identifier="jHuxcyi1x5"/>
  <guideline x="953.0" y="554.0" angle="90.0" identifier="b1mHk7wgTR"/>
  <guideline x="627.0" y="553.0" angle="90.0" identifier="m4aYe0x4PZ"/>
  <outline>
    <contour>
      <point x="1186.396" y="124.376" type="line"/>
      <point x="1341.898" y="124.376" type="line"/>
      <point x="1351.898" y="-318.0" type="line"/>
      <point x="1239.138" y="-318.0" type="line"/>
      <point x="1146.6779999999999" y="0.0" type="line"/>
      <point x="64.43" y="0.0" type="line"/>
      <point x="64.43" y="93.84" type="line"/>
      <point x="212.43" y="128.84" type="line"/>
      <point x="214.43" y="508.65" type="line"/>
      <point x="212.43" y="888.46" type="line"/>
      <point x="64.43" y="923.46" type="line"/>
      <point x="64.43" y="1017.3" type="line"/>
      <point x="620.078" y="1017.3" type="line"/>
      <point x="620.078" y="923.46" type="line"/>
      <point x="491.074" y="888.46" type="line"/>
      <point x="488.728" y="508.65" type="line"/>
      <point x="491.074" y="124.376" type="line"/>
      <point x="907.098" y="124.376" type="line"/>
      <point x="909.444" y="508.65" type="line"/>
      <point x="907.098" y="888.46" type="line"/>
      <point x="778.094" y="923.46" type="line"/>
      <point x="778.094" y="1017.3" type="line"/>
      <point x="1333.742" y="1017.3" type="line"/>
      <point x="1333.742" y="923.46" type="line"/>
      <point x="1185.742" y="888.46" type="line"/>
      <point x="1183.742" y="508.65" type="line"/>
    </contour>
  </outline>
</glyph>
<glyph name="ya" format="2">
  <advance width="1238"/>
  <unicode hex="044F"/>
  <guideline x="302.0" y="625.0" angle="90.0" identifier="XQgmgmO2xX"/>
  <guideline x="953.0" y="554.0" angle="90.0" identifier="MobSutKfE9"/>
  <guideline x="627.0" y="553.0" angle="90.0" identifier="l2g0Cp9ZiO"/>
  <outline>
    <contour>
      <point x="841.284" y="517.84" type="line"/>
      <point x="841.284" y="398.81" type="line"/>
      <point x="500.558" y="395.54" type="line"/>
      <point x="463.174" y="406.194" type="line"/>
      <point x="293.916" y="424.506"/>
      <point x="106.772" y="564.54"/>
      <point x="106.772" y="705.688" type="qcurve" smooth="yes"/>
      <point x="106.772" y="853.068"/>
      <point x="327.692" y="1017.3"/>
      <point x="542.3" y="1017.3" type="qcurve" smooth="yes"/>
      <point x="1173.586" y="1017.3" type="line"/>
      <point x="1173.586" y="923.46" type="line"/>
      <point x="1025.586" y="888.46" type="line"/>
      <point x="1023.586" y="508.65" type="line"/>
      <point x="1025.586" y="128.84" type="line"/>
      <point x="1173.586" y="93.84" type="line"/>
      <point x="1173.586" y="0.0" type="line"/>
      <point x="612.748" y="0.0" type="line"/>
      <point x="612.748" y="93.84" type="line"/>
      <point x="746.942" y="128.84" type="line"/>
      <point x="749.288" y="508.65" type="line"/>
      <point x="746.942" y="893.962" type="line"/>
      <point x="606.656" y="893.962" type="line" smooth="yes"/>
      <point x="486.846" y="893.962"/>
      <point x="394.496" y="788.574"/>
      <point x="394.496" y="704.304" type="qcurve" smooth="yes"/>
      <point x="394.496" y="620.996"/>
      <point x="485.808" y="517.84"/>
      <point x="603.542" y="517.84" type="qcurve" smooth="yes"/>
    </contour>
    <contour>
      <point x="607.158" y="432.616" type="line"/>
      <point x="420.998" y="121.38" type="line"/>
      <point x="429.998" y="89.38" type="line"/>
      <point x="416.614" y="0.0" type="line"/>
      <point x="23.08" y="0.0" type="line"/>
      <point x="23.08" y="93.84" type="line"/>
      <point x="146.89" y="128.84" type="line"/>
      <point x="369.042" y="492.562" type="line"/>
    </contour>
  </outline>
</glyph>
<glyph name="dje" format="2">
  <advance width="1362"/>
  <unicode hex="0452"/>
  <outline>
    <contour>
      <point x="356.702" y="1120.0" type="line"/>
      <point x="30.0" y="1120.0" type="line"/>
      <point x="42.038" y="1248.076" type="line"/>
      <point x="388.052" y="1248.076" type="line"/>
      <point x="706.994" y="1248.076" type="line"/>
      <point x="706.994" y="1120.0" type="line"/>
    </contour>
    <contour>
      <point x="1195.738" y="385.23" type="qcurve"/>
      <point x="1200.7" y="-115.08" type="line" smooth="yes"/>
      <point x="1203.008" y="-294.08"/>
      <point x="978.906" y="-491.73"/>
      <point x="702.128" y="-479.0" type="qcurve"/>
      <point x="702.128" y="-333.7" type="line"/>
      <point x="824.208" y="-330.7"/>
      <point x="921.672" y="-237.78"/>
      <point x="922.326" y="-122.7" type="qcurve" smooth="yes"/>
      <point x="923.634" y="370.698" type="line"/>
      <point x="921.672" y="689.506" type="line" smooth="yes"/>
      <point x="921.672" y="758.966"/>
      <point x="827.284" y="855.856"/>
      <point x="743.01" y="855.856" type="qcurve" smooth="yes"/>
      <point x="670.584" y="855.856"/>
      <point x="527.96" y="784.7"/>
      <point x="482.534" y="721.54" type="qcurve"/>
      <point x="481.496" y="521.118" type="line"/>
      <point x="483.842" y="128.84" type="line"/>
      <point x="618.036" y="93.84" type="line"/>
      <point x="618.036" y="0.0" type="line"/>
      <point x="61.122" y="0.0" type="line"/>
      <point x="61.122" y="93.84" type="line"/>
      <point x="205.198" y="128.84" type="line"/>
      <point x="207.198" y="539.11" type="line"/>
      <point x="205.198" y="1362.16" type="line"/>
      <point x="45.426" y="1392.16" type="line"/>
      <point x="45.426" y="1500.0" type="line"/>
      <point x="413.808" y="1534.0" type="line"/>
      <point x="445.808" y="1534.0" type="line"/>
      <point x="483.842" y="1496.81" type="line"/>
      <point x="483.188" y="870.3" type="line"/>
      <point x="544.7239999999999" y="943.224"/>
      <point x="750.64" y="1039.3"/>
      <point x="868.902" y="1039.3" type="qcurve" smooth="yes"/>
      <point x="1035.012" y="1039.3"/>
      <point x="1198.316" y="884.418"/>
      <point x="1198.316" y="754.418" type="qcurve" smooth="yes"/>
      <point x="1198.316" y="632.904"/>
      <point x="1195.738" y="401.14599999999996"/>
    </contour>
  </outline>
</glyph>
<glyph name="yi" format="2">
  <advance width="712"/>
  <unicode hex="0457"/>
  <outline>
    <contour>
      <point x="65.236" y="0.0" type="line"/>
      <point x="65.236" y="93.84" type="line"/>
      <point x="226.316" y="128.84" type="line"/>
      <point x="228.316" y="535.65" type="line"/>
      <point x="223.046" y="847.19" type="line"/>
      <point x="61.966" y="877.19" type="line"/>
      <point x="61.966" y="984.684" type="line"/>
      <point x="423.698" y="1017.992" type="line"/>
      <point x="481.424" y="1017.992" type="line"/>
      <point x="511.344" y="975.532" type="line"/>
      <point x="504.344" y="535.65" type="line"/>
      <point x="506.344" y="128.84" type="line"/>
      <point x="667.424" y="93.84" type="line"/>
      <point x="667.424" y="0.0" type="line"/>
    </contour>
    <contour>
      <point x="21.232" y="1334.232" type="qcurve" smooth="yes"/>
      <point x="21.232" y="1401.882"/>
      <point x="99.38" y="1479.722"/>
      <point x="171.452" y="1479.722" type="qcurve" smooth="yes"/>
      <point x="240.216" y="1479.722"/>
      <point x="322.71" y="1399.958"/>
      <point x="322.71" y="1334.232" type="qcurve" smooth="yes"/>
      <point x="322.71" y="1268.658"/>
      <point x="245.254" y="1192.894"/>
      <point x="172.144" y="1192.894" type="qcurve" smooth="yes"/>
      <point x="103.38" y="1192.894"/>
      <point x="21.232" y="1272.658"/>
    </contour>
    <contour>
      <point x="382.372" y="1334.232" type="qcurve" smooth="yes"/>
      <point x="382.372" y="1401.882"/>
      <point x="460.174" y="1479.722"/>
      <point x="532.592" y="1479.722" type="qcurve" smooth="yes"/>
      <point x="601.01" y="1479.722"/>
      <point x="683.85" y="1399.958"/>
      <point x="683.85" y="1334.232" type="qcurve" smooth="yes"/>
      <point x="683.85" y="1268.658"/>
      <point x="606.394" y="1192.894"/>
      <point x="532.938" y="1192.894" type="qcurve" smooth="yes"/>
      <point x="464.866" y="1192.894"/>
      <point x="382.372" y="1272.658"/>
    </contour>
  </outline>
</glyph>
<glyph name="lje" format="2">
  <advance width="1732"/>
  <unicode hex="0459"/>
  <guideline x="302.0" y="477.95000000000005" angle="90.0" identifier="jHuxcyi1x5"/>
  <guideline x="953.0" y="554.0" angle="90.0" identifier="b1mHk7wgTR"/>
  <guideline x="627.0" y="553.0" angle="90.0" identifier="m4aYe0x4PZ"/>
  <guideline x="302.0" y="625.0" angle="90.0" identifier="vLcWUVIRLn"/>
  <guideline x="953.0" y="554.0" angle="90.0" identifier="6dzOxXKOwA"/>
  <guideline x="627.0" y="553.0" angle="90.0" identifier="mJzxvRVyB1"/>
  <guideline x="692.438" y="588.376" angle="90.0" identifier="NbdfSyw2GO"/>
  <outline>
    <contour>
      <point x="759.97" y="892.924" type="line"/>
      <point x="762.624" y="508.65" type="line"/>
      <point x="760.624" y="128.84" type="line"/>
      <point x="612.624" y="93.84" type="line"/>
      <point x="612.624" y="0.0" type="line"/>
      <point x="1262.214" y="0.0" type="line" smooth="yes"/>
      <point x="1467.48" y="0.0"/>
      <point x="1685.978" y="173.038"/>
      <point x="1685.978" y="321.612" type="qcurve" smooth="yes"/>
      <point x="1685.978" y="474.722"/>
      <point x="1465.75" y="641.76"/>
      <point x="1262.214" y="641.76" type="qcurve" smooth="yes"/>
      <point x="899.6" y="641.76" type="line"/>
      <point x="899.6" y="519.46" type="line"/>
      <point x="1189.208" y="519.46" type="line" smooth="yes"/>
      <point x="1306.942" y="519.46"/>
      <point x="1398.254" y="410.65"/>
      <point x="1398.254" y="322.996" type="qcurve" smooth="yes"/>
      <point x="1398.254" y="234.38"/>
      <point x="1305.904" y="123.338"/>
      <point x="1186.094" y="123.338" type="qcurve" smooth="yes"/>
      <point x="1038.922" y="123.338" type="line"/>
      <point x="1036.576" y="508.65" type="line"/>
      <point x="1038.922" y="888.46" type="line"/>
      <point x="1190.036" y="923.46" type="line"/>
      <point x="1190.036" y="1017.3" type="line"/>
      <point x="179.662" y="1017.3" type="line"/>
      <point x="179.662" y="923.46" type="line"/>
      <point x="321.122" y="888.46" type="line"/>
      <point x="287.004" y="479.95" type="line" smooth="yes"/>
      <point x="275.734" y="349.448"/>
      <point x="201.696" y="200.824"/>
      <point x="116.62" y="200.824" type="qcurve" smooth="yes"/>
      <point x="97.62" y="200.824"/>
      <point x="61.620000000000005" y="205.824"/>
      <point x="39.620000000000005" y="212.824" type="qcurve"/>
      <point x="39.620000000000005" y="-1.308" type="line"/>
      <point x="60.43" y="-9.27"/>
      <point x="102.2282857142956" y="-17.346"/>
      <point x="129.308" y="-17.346" type="qcurve" smooth="yes"/>
      <point x="284.3179586207042" y="-17.346"/>
      <point x="416.3993066966402" y="212.3440580748126"/>
      <point x="436.532" y="457.68399999999997" type="qcurve" smooth="yes"/>
      <point x="472.65" y="892.924" type="line"/>
    </contour>
  </outline>
</glyph>
<glyph name="nje" format="2">
  <advance width="1890"/>
  <unicode hex="045A"/>
  <guideline x="302.0" y="625.0" angle="90.0" identifier="jHuxcyi1x5"/>
  <guideline x="953.0" y="554.0" angle="90.0" identifier="b1mHk7wgTR"/>
  <guideline x="627.0" y="553.0" angle="90.0" identifier="m4aYe0x4PZ"/>
  <guideline x="343.52" y="597.666" angle="90.0" identifier="rq0U6aqci5"/>
  <guideline x="1050.572" y="588.946" angle="90.0" identifier="XL8H0eYrVF"/>
  <outline>
    <contour>
      <point x="351.406" y="613.148" type="line"/>
      <point x="703.432" y="610.148" type="line"/>
      <point x="1057.804" y="613.148" type="line"/>
      <point x="1057.804" y="488.772" type="line"/>
      <point x="703.432" y="490.772" type="line"/>
      <point x="351.406" y="488.772" type="line"/>
    </contour>
    <contour>
      <point x="214.43" y="508.65" type="line"/>
      <point x="212.43" y="888.46" type="line"/>
      <point x="64.43" y="923.46" type="line"/>
      <point x="64.43" y="1017.3" type="line"/>
      <point x="621.462" y="1017.3" type="line"/>
      <point x="621.462" y="923.46" type="line"/>
      <point x="490.728" y="888.46" type="line"/>
      <point x="488.382" y="508.65" type="line"/>
      <point x="490.728" y="128.84" type="line"/>
      <point x="621.462" y="93.84" type="line"/>
      <point x="621.462" y="0.0" type="line"/>
      <point x="64.43" y="0.0" type="line"/>
      <point x="64.43" y="93.84" type="line"/>
      <point x="212.43" y="128.84" type="line"/>
    </contour>
    <contour>
      <point x="1057.804" y="490.848" type="line"/>
      <point x="1057.804" y="613.148" type="line"/>
      <point x="1420.418" y="613.148" type="line" smooth="yes"/>
      <point x="1623.954" y="613.148"/>
      <point x="1844.182" y="454.532"/>
      <point x="1844.182" y="309.19" type="qcurve" smooth="yes"/>
      <point x="1844.182" y="166.654"/>
      <point x="1625.684" y="0.0"/>
      <point x="1420.418" y="0.0" type="qcurve" smooth="yes"/>
      <point x="787.748" y="0.0" type="line"/>
      <point x="787.748" y="93.84" type="line"/>
      <point x="918.828" y="128.84" type="line"/>
      <point x="920.828" y="508.65" type="line"/>
      <point x="918.828" y="888.46" type="line"/>
      <point x="787.748" y="923.46" type="line"/>
      <point x="787.748" y="1017.3" type="line"/>
      <point x="1348.24" y="1017.3" type="line"/>
      <point x="1348.24" y="923.46" type="line"/>
      <point x="1197.126" y="888.46" type="line"/>
      <point x="1194.78" y="508.65" type="line"/>
      <point x="1197.126" y="123.338" type="line"/>
      <point x="1344.298" y="123.338" type="line" smooth="yes"/>
      <point x="1464.108" y="123.338"/>
      <point x="1556.458" y="227.34199999999998"/>
      <point x="1556.458" y="310.574" type="qcurve" smooth="yes"/>
      <point x="1556.458" y="391.46"/>
      <point x="1465.146" y="490.848"/>
      <point x="1347.412" y="490.848" type="qcurve" smooth="yes"/>
    </contour>
  </outline>
</glyph>
<glyph name="kadescender" format="2">
  <advance width="1310"/>
  <unicode hex="049B"/>
  <guideline x="241.0" y="553.0" angle="90.0" identifier="lmgRx0QBdK"/>
  <outline>
    <contour>
      <point x="214.43" y="508.65" type="line"/>
      <point x="212.43" y="888.46" type="line"/>
      <point x="64.43" y="923.46" type="line"/>
      <point x="64.43" y="1017.3" type="line"/>
      <point x="621.462" y="1017.3" type="line"/>
      <point x="621.462" y="923.46" type="line"/>
      <point x="490.728" y="888.46" type="line"/>
      <point x="488.382" y="508.65" type="line"/>
      <point x="490.728" y="128.84" type="line"/>
      <point x="621.462" y="93.84" type="line"/>
      <point x="621.462" y="0.0" type="line"/>
      <point x="64.43" y="0.0" type="line"/>
      <point x="64.43" y="93.84" type="line"/>
      <point x="212.43" y="128.84" type="line"/>
    </contour>
    <contour>
      <point x="604.93" y="490.92" type="line"/>
      <point x="790.97" y="665.234" type="line"/>
      <point x="1184.552" y="124.376" type="line"/>
      <point x="1184.552" y="0.0" type="line"/>
      <point x="885.524" y="0.0" type="line"/>
      <point x="872.14" y="89.38" type="line"/>
      <point x="881.14" y="121.38" type="line"/>
    </contour>
    <contour>
      <point x="350.752" y="582.57" type="line"/>
      <point x="619.504" y="579.916" type="line"/>
      <point x="889.276" y="880.0" type="line"/>
      <point x="748.504" y="910.0" type="line"/>
      <point x="748.504" y="1017.3" type="line"/>
      <point x="1233.256" y="1017.3" type="line"/>
      <point x="1233.256" y="910.0" type="line"/>
      <point x="1067.298" y="875.0" type="line"/>
      <point x="644.888" y="459.848" type="line"/>
      <point x="350.752" y="458.194" type="line"/>
    </contour>
    <contour>
      <point x="1108.294" y="124.376" type="line"/>
      <point x="1303.514" y="124.376" type="line"/>
      <point x="1313.514" y="-318.0" type="line"/>
      <point x="1200.754" y="-318.0" type="line"/>
      <point x="1108.294" y="0.0" type="line"/>
    </contour>
  </outline>
</glyph>
<glyph name="kabashkircyr" format="2">
  <advance width="1521"/>
  <unicode hex="04A1"/>
  <guideline x="302.0" y="625.0" angle="90.0" identifier="0glbwjr6f1"/>
  <guideline x="953.0" y="554.0" angle="90.0" identifier="41A0uQDzZV"/>
  <guideline x="627.0" y="553.0" angle="90.0" identifier="rA3XBl1QkZ"/>
  <guideline x="241.0" y="553.0" angle="90.0" identifier="UwAftolvUF"/>
  <outline>
    <contour>
      <point x="820.12" y="490.92" type="line"/>
      <point x="1006.16" y="665.234" type="line"/>
      <point x="1395.548" y="128.84" type="line"/>
      <point x="1512.164" y="93.84" type="line"/>
      <point x="1512.164" y="0.0" type="line"/>
      <point x="1100.714" y="0.0" type="line"/>
      <point x="1087.33" y="89.38" type="line"/>
      <point x="1096.33" y="121.38" type="line"/>
    </contour>
    <contour>
      <point x="566.596" y="582.57" type="line"/>
      <point x="834.694" y="579.916" type="line"/>
      <point x="1104.466" y="880.0" type="line"/>
      <point x="963.694" y="910.0" type="line"/>
      <point x="963.694" y="1017.3" type="line"/>
      <point x="1448.446" y="1017.3" type="line"/>
      <point x="1448.446" y="910.0" type="line"/>
      <point x="1282.488" y="875.0" type="line"/>
      <point x="958.454" y="554.65" type="line"/>
      <point x="882.568" y="459.848" type="line"/>
      <point x="566.596" y="458.194" type="line"/>
    </contour>
    <contour>
      <point x="836.998" y="93.84" type="line"/>
      <point x="836.998" y="0.0" type="line"/>
      <point x="279.62" y="0.0" type="line"/>
      <point x="279.62" y="93.84" type="line"/>
      <point x="427.62" y="128.84" type="line"/>
      <point x="429.62" y="508.65" type="line"/>
      <point x="427.62" y="892.924" type="line"/>
      <point x="222.608" y="892.924" type="line"/>
      <point x="165.882" y="648.852" type="line"/>
      <point x="47.89" y="648.852" type="line"/>
      <point x="51.35" y="1017.3" type="line"/>
      <point x="836.998" y="1017.3" type="line"/>
      <point x="836.998" y="923.46" type="line"/>
      <point x="706.264" y="888.46" type="line"/>
      <point x="703.918" y="508.65" type="line"/>
      <point x="706.264" y="128.84" type="line"/>
    </contour>
  </outline>
</glyph>
<glyph name="ustraight" format="2">
  <advance width="1158"/>
  <unicode hex="04AF"/>
  <outline>
    <contour>
      <point x="-6.54" y="910.0" type="line"/>
      <point x="-6.54" y="1017.3" type="line"/>
      <point x="541.328" y="1017.3" type="line"/>
      <point x="541.328" y="910.0" type="line"/>
      <point x="412.826" y="873.346" type="line"/>
      <point x="534.674" y="491.456" type="line"/>
      <point x="650.8299999999999" y="157.296" type="line"/>
      <point x="767.526" y="496.186" type="line"/>
      <point x="881.492" y="878.27" type="line"/>
      <point x="748.644" y="910.0" type="line"/>
      <point x="748.644" y="1017.3" type="line"/>
      <point x="1177.792" y="1017.3" type="line"/>
      <point x="1177.792" y="910.0" type="line"/>
      <point x="1033.598" y="875.0" type="line"/>
      <point x="884.404" y="455.878" type="line"/>
      <point x="722.29" y="0.0" type="line"/>
      <point x="723.29" y="-351.16" type="line"/>
      <point x="867.484" y="-386.16" type="line"/>
      <point x="867.484" y="-480.0" type="line"/>
      <point x="296.992" y="-480.0" type="line"/>
      <point x="296.992" y="-386.16" type="line"/>
      <point x="442.916" y="-351.16" type="line"/>
      <point x="444.608" y="0.0" type="line"/>
      <point x="286.262" y="418.08" type="line"/>
      <point x="117.342" y="875.0" type="line"/>
    </contour>
  </outline>
</glyph>
<glyph name="Chedescender-cy" format="2">
  <advance width="1753"/>
  <unicode hex="04B6"/>
  <guideline x="1330.0" y="777.0" angle="90.0" identifier="9CLqHZNG04"/>
  <outline>
    <contour>
      <point x="44.81" y="1375.62" type="line"/>
      <point x="44.81" y="1500.0" type="line"/>
      <point x="726.9639999999999" y="1500.0" type="line"/>
      <point x="726.9639999999999" y="1375.62" type="line"/>
      <point x="534.15" y="1341.62" type="line"/>
      <point x="532.804" y="1056.7" type="line" smooth="yes"/>
      <point x="531.804" y="880.384"/>
      <point x="702.55" y="734.726"/>
      <point x="900.178" y="734.726" type="qcurve" smooth="yes"/>
      <point x="1017.064" y="734.726"/>
      <point x="1224.6" y="778.646"/>
      <point x="1338.482" y="820.144" type="qcurve"/>
      <point x="1338.482" y="679.304" type="line"/>
      <point x="1221.562" y="634.114"/>
      <point x="1000.3" y="584.156"/>
      <point x="817.696" y="584.156" type="qcurve" smooth="yes"/>
      <point x="547.734" y="584.156"/>
      <point x="243.814" y="795.696"/>
      <point x="243.122" y="1061.278" type="qcurve" smooth="yes"/>
      <point x="242.43" y="1341.62" type="line"/>
    </contour>
    <contour>
      <point x="1483.842" y="125.3" type="line"/>
      <point x="1681.462" y="125.3" type="line"/>
      <point x="1691.462" y="-338.0" type="line"/>
      <point x="1552.162" y="-338.0" type="line"/>
      <point x="1472.782" y="0.0" type="line"/>
      <point x="975.156" y="0.0" type="line"/>
      <point x="975.156" y="110.38" type="line"/>
      <point x="1192.776" y="145.38" type="line"/>
      <point x="1194.776" y="754.0" type="line"/>
      <point x="1192.776" y="1341.62" type="line"/>
      <point x="999.308" y="1375.62" type="line"/>
      <point x="999.308" y="1500.0" type="line"/>
      <point x="1681.462" y="1500.0" type="line"/>
      <point x="1681.462" y="1375.62" type="line"/>
      <point x="1483.842" y="1341.62" type="line"/>
      <point x="1481.842" y="754.0" type="line"/>
    </contour>
  </outline>
</glyph>
<glyph name="Cheverticalstroke-cy" format="2">
  <advance width="1763"/>
  <unicode hex="04B8"/>
  <guideline x="1330.0" y="777.0" angle="90.0" identifier="SFQDOVOlnA"/>
  <outline>
    <contour>
      <point x="955.398" y="1145.0" type="line"/>
      <point x="955.398" y="289.0" type="line"/>
      <point x="791.558" y="289.0" type="line"/>
      <point x="791.558" y="1145.0" type="line"/>
    </contour>
    <contour>
      <point x="990.034" y="0.0" type="line"/>
      <point x="990.034" y="110.38" type="line"/>
      <point x="1206.962" y="145.38" type="line"/>
      <point x="1208.962" y="754.0" type="line"/>
      <point x="1206.962" y="1341.62" type="line"/>
      <point x="1013.494" y="1375.62" type="line"/>
      <point x="1013.494" y="1500.0" type="line"/>
      <point x="1695.302" y="1500.0" type="line"/>
      <point x="1695.302" y="1375.62" type="line"/>
      <point x="1497.682" y="1341.62" type="line"/>
      <point x="1495.682" y="754.0" type="line"/>
      <point x="1497.682" y="145.38" type="line"/>
      <point x="1695.302" y="110.38" type="line"/>
      <point x="1695.302" y="0.0" type="line"/>
    </contour>
    <contour>
      <point x="44.81" y="1375.62" type="line"/>
      <point x="44.81" y="1500.0" type="line"/>
      <point x="726.9639999999999" y="1500.0" type="line"/>
      <point x="726.9639999999999" y="1375.62" type="line"/>
      <point x="534.15" y="1341.62" type="line"/>
      <point x="532.804" y="1056.7" type="line" smooth="yes"/>
      <point x="531.804" y="880.384"/>
      <point x="702.55" y="734.726"/>
      <point x="900.178" y="734.726" type="qcurve" smooth="yes"/>
      <point x="1020.4477885462488" y="734.726"/>
      <point x="1235.1364759135115" y="777.3245903654254"/>
      <point x="1352.322" y="820.144" type="qcurve"/>
      <point x="1352.322" y="679.304" type="line"/>
      <point x="1232.9008444162637" y="633.0558187914988"/>
      <point x="1005.5153996737482" y="584.156"/>
      <point x="817.696" y="584.156" type="qcurve" smooth="yes"/>
      <point x="547.734" y="584.156"/>
      <point x="243.814" y="795.696"/>
      <point x="243.122" y="1061.278" type="qcurve" smooth="yes"/>
      <point x="242.43" y="1341.62" type="line"/>
    </contour>
  </outline>
</glyph>
<glyph name="quoteright" format="2">
  <advance width="625"/>
  <unicode hex="2019"/>
  <outline>
    <contour>
      <point x="138.046" y="989.686" type="line"/>
      <point x="187.042" y="1021.762"/>
      <point x="306.612" y="1143.568"/>
      <point x="330.608" y="1220.602" type="qcurve"/>
      <point x="235.734" y="1220.602"/>
      <point x="140.856" y="1312.21"/>
      <point x="140.856" y="1381.59" type="qcurve" smooth="yes"/>
      <point x="140.856" y="1449.624"/>
      <point x="240.194" y="1546.0"/>
      <point x="318.072" y="1546.0" type="qcurve" smooth="yes"/>
      <point x="391.95" y="1546.0"/>
      <point x="502.48199999999997" y="1441.696"/>
      <point x="502.48199999999997" y="1349.472" type="qcurve" smooth="yes"/>
      <point x="502.48199999999997" y="1214.324"/>
      <point x="309.574" y="985.842"/>
      <point x="186.582" y="932.0360000000001" type="qcurve"/>
    </contour>
  </outline>
</glyph>
<glyph name="quotedblright" format="2">
  <advance width="1100"/>
  <unicode hex="201D"/>
  <outline>
    <contour>
      <point x="138.046" y="989.686" type="line"/>
      <point x="187.042" y="1021.762"/>
      <point x="306.612" y="1143.568"/>
      <point x="330.608" y="1220.602" type="qcurve"/>
      <point x="235.734" y="1220.602"/>
      <point x="140.856" y="1312.21"/>
      <point x="140.856" y="1381.59" type="qcurve" smooth="yes"/>
      <point x="140.856" y="1449.624"/>
      <point x="240.194" y="1546.0"/>
      <point x="318.072" y="1546.0" type="qcurve" smooth="yes"/>
      <point x="391.95" y="1546.0"/>
      <point x="502.48199999999997" y="1441.696"/>
      <point x="502.48199999999997" y="1349.472" type="qcurve" smooth="yes"/>
      <point x="502.48199999999997" y="1214.324"/>
      <point x="309.574" y="985.842"/>
      <point x="186.582" y="932.0360000000001" type="qcurve"/>
    </contour>
    <contour>
      <point x="613.026" y="989.686" type="line"/>
      <point x="662.022" y="1021.762"/>
      <point x="781.592" y="1143.568"/>
      <point x="805.588" y="1220.602" type="qcurve"/>
      <point x="710.7139999999999" y="1220.602"/>
      <point x="615.836" y="1312.21"/>
      <point x="615.836" y="1381.59" type="qcurve" smooth="yes"/>
      <point x="615.836" y="1449.624"/>
      <point x="715.174" y="1546.0"/>
      <point x="793.052" y="1546.0" type="qcurve" smooth="yes"/>
      <point x="866.93" y="1546.0"/>
      <point x="977.462" y="1441.696"/>
      <point x="977.462" y="1349.472" type="qcurve" smooth="yes"/>
      <point x="977.462" y="1214.324"/>
      <point x="784.554" y="985.842"/>
      <point x="661.562" y="932.0360000000001" type="qcurve"/>
    </contour>
  </outline>
</glyph>
<glyph name="bullet" format="2">
  <advance width="834"/>
  <unicode hex="2022"/>
  <outline>
    <contour>
      <point x="104.0" y="773.0" type="qcurve" smooth="yes"/>
      <point x="104.0" y="899.034"/>
      <point x="279.84" y="1085.912"/>
      <point x="416.912" y="1085.912" type="qcurve" smooth="yes"/>
      <point x="553.984" y="1085.912"/>
      <point x="729.824" y="899.034"/>
      <point x="729.824" y="773.0" type="qcurve" smooth="yes"/>
      <point x="729.824" y="648.966"/>
      <point x="553.984" y="462.088"/>
      <point x="416.912" y="462.088" type="qcurve" smooth="yes"/>
      <point x="279.84" y="462.088"/>
      <point x="104.0" y="648.966"/>
    </contour>
  </outline>
</glyph>
<glyph name="perthousand" format="2">
  <advance width="3110"/>
  <unicode hex="2030"/>
  <outline>
    <contour>
      <point x="64.312" y="1075.464" type="qcurve" smooth="yes"/>
      <point x="64.312" y="1272.308"/>
      <point x="301.726" y="1521.654"/>
      <point x="493.988" y="1521.654" type="qcurve" smooth="yes"/>
      <point x="687.25" y="1521.654"/>
      <point x="927.664" y="1291.0"/>
      <point x="927.664" y="1080.772" type="qcurve" smooth="yes"/>
      <point x="927.664" y="883.544"/>
      <point x="691.596" y="627.506"/>
      <point x="499.334" y="627.506" type="qcurve" smooth="yes"/>
      <point x="306.072" y="627.506"/>
      <point x="64.312" y="862.852"/>
    </contour>
    <contour>
      <point x="292.014" y="1089.35" type="qcurve" smooth="yes"/>
      <point x="292.014" y="921.396"/>
      <point x="401.098" y="746.122"/>
      <point x="492.988" y="746.122" type="qcurve" smooth="yes"/>
      <point x="591.186" y="746.122"/>
      <point x="694.962" y="903.434"/>
      <point x="694.962" y="1080.08" type="qcurve" smooth="yes"/>
      <point x="694.962" y="1239.612"/>
      <point x="586.878" y="1399.038"/>
      <point x="493.988" y="1399.038" type="qcurve" smooth="yes"/>
      <point x="394.79" y="1399.038"/>
      <point x="291.36" y="1258.342"/>
    </contour>
    <contour>
      <point x="447.086" y="36.418" type="line"/>
      <point x="1556.608" y="1527.27" type="line"/>
      <point x="1672.102" y="1450.852" type="line"/>
      <point x="561.888" y="-41.384" type="line"/>
    </contour>
    <contour>
      <point x="1204.102" y="403.84" type="qcurve" smooth="yes"/>
      <point x="1204.102" y="601.03"/>
      <point x="1441.516" y="864.84"/>
      <point x="1633.778" y="864.84" type="qcurve" smooth="yes"/>
      <point x="1826.694" y="864.84"/>
      <point x="2067.454" y="619.722"/>
      <point x="2067.454" y="409.148" type="qcurve" smooth="yes"/>
      <point x="2067.454" y="226.038"/>
      <point x="1831.386" y="-28.962"/>
      <point x="1639.124" y="-28.962" type="qcurve" smooth="yes"/>
      <point x="1445.862" y="-28.962"/>
      <point x="1204.102" y="205.692"/>
    </contour>
    <contour>
      <point x="1431.804" y="419.456" type="qcurve" smooth="yes"/>
      <point x="1431.804" y="264.928"/>
      <point x="1540.542" y="90.308"/>
      <point x="1633.124" y="90.308" type="qcurve" smooth="yes"/>
      <point x="1730.976" y="90.308"/>
      <point x="1834.752" y="245.236"/>
      <point x="1834.752" y="409.84" type="qcurve" smooth="yes"/>
      <point x="1834.752" y="569.372"/>
      <point x="1726.668" y="741.57"/>
      <point x="1633.432" y="741.57" type="qcurve" smooth="yes"/>
      <point x="1534.234" y="741.57"/>
      <point x="1431.804" y="588.102"/>
    </contour>
    <contour>
      <point x="2182.576" y="403.84" type="qcurve" smooth="yes"/>
      <point x="2182.576" y="601.03"/>
      <point x="2419.99" y="864.84"/>
      <point x="2612.252" y="864.84" type="qcurve" smooth="yes"/>
      <point x="2805.168" y="864.84"/>
      <point x="3045.928" y="619.722"/>
      <point x="3045.928" y="409.148" type="qcurve" smooth="yes"/>
      <point x="3045.928" y="226.038"/>
      <point x="2809.86" y="-28.962"/>
      <point x="2617.598" y="-28.962" type="qcurve" smooth="yes"/>
      <point x="2424.336" y="-28.962"/>
      <point x="2182.576" y="205.692"/>
    </contour>
    <contour>
      <point x="2410.278" y="419.456" type="qcurve" smooth="yes"/>
      <point x="2410.278" y="264.928"/>
      <point x="2519.016" y="90.308"/>
      <point x="2611.598" y="90.308" type="qcurve" smooth="yes"/>
      <point x="2709.45" y="90.308"/>
      <point x="2813.226" y="245.236"/>
      <point x="2813.226" y="409.84" type="qcurve" smooth="yes"/>
      <point x="2813.226" y="569.372"/>
      <point x="2705.142" y="741.57"/>
      <point x="2611.906" y="741.57" type="qcurve" smooth="yes"/>
      <point x="2512.708" y="741.57"/>
      <point x="2410.278" y="588.102"/>
    </contour>
  </outline>
</glyph>
<glyph name="second" format="2">
  <advance width="1044"/>
  <unicode hex="2033"/>
  <outline>
    <contour>
      <point x="142.502" y="974.548" type="line"/>
      <point x="337.24" y="1444.928" type="line" smooth="yes"/>
      <point x="356.932" y="1494.194"/>
      <point x="453.966" y="1546.46"/>
      <point x="516.308" y="1515.768" type="qcurve" smooth="yes"/>
      <point x="575.228" y="1487.422"/>
      <point x="587.92" y="1370.89"/>
      <point x="550.654" y="1330.662" type="qcurve" smooth="yes"/>
      <point x="210.92" y="954.274" type="line"/>
    </contour>
    <contour>
      <point x="543.262" y="974.548" type="line"/>
      <point x="738.0" y="1444.928" type="line" smooth="yes"/>
      <point x="757.692" y="1494.194"/>
      <point x="854.726" y="1546.46"/>
      <point x="917.068" y="1515.768" type="qcurve" smooth="yes"/>
      <point x="975.988" y="1487.422"/>
      <point x="988.68" y="1370.89"/>
      <point x="951.414" y="1330.662" type="qcurve" smooth="yes"/>
      <point x="611.68" y="954.274" type="line"/>
    </contour>
  </outline>
</glyph>
<glyph name="minus" format="2">
  <advance width="1044"/>
  <unicode hex="2212"/>
  <outline>
    <contour>
      <point x="74.118" y="533.856" type="line"/>
      <point x="74.118" y="730.144" type="line"/>
      <point x="970.296" y="730.144" type="line"/>
      <point x="970.296" y="533.856" type="line"/>
    </contour>
  </outline>
</glyph>
<glyph name="approxequal" format="2">
  <advance width="1044"/>
  <unicode hex="2248"/>
  <outline>
    <contour>
      <point x="48.379999999999995" y="782.14" type="line"/>
      <point x="110.38" y="875.14"/>
      <point x="290.38" y="987.14"/>
      <point x="378.38" y="987.14" type="qcurve"/>
      <point x="721.38" y="852.14" type="line"/>
      <point x="781.38" y="852.14"/>
      <point x="873.38" y="940.14"/>
      <point x="906.38" y="994.14" type="qcurve"/>
      <point x="996.38" y="904.08" type="line"/>
      <point x="946.38" y="800.08"/>
      <point x="802.38" y="659.08"/>
      <point x="670.38" y="659.08" type="qcurve"/>
      <point x="350.38" y="786.08" type="line"/>
      <point x="289.38" y="786.08"/>
      <point x="173.38" y="732.08"/>
      <point x="116.38" y="680.08" type="qcurve"/>
    </contour>
    <contour>
      <point x="48.379999999999995" y="384.84" type="line"/>
      <point x="110.38" y="477.84"/>
      <point x="290.38" y="589.84"/>
      <point x="378.38" y="589.84" type="qcurve"/>
      <point x="721.38" y="454.84" type="line"/>
      <point x="781.38" y="454.84"/>
      <point x="873.38" y="542.84"/>
      <point x="906.38" y="596.84" type="qcurve"/>
      <point x="996.38" y="506.78" type="line"/>
      <point x="946.38" y="402.78"/>
      <point x="802.38" y="261.78"/>
      <point x="670.38" y="261.78" type="qcurve"/>
      <point x="350.38" y="388.78" type="line"/>
      <point x="289.38" y="388.78"/>
      <point x="173.38" y="334.78"/>
      <point x="116.38" y="282.78" type="qcurve"/>
    </contour>
  </outline>
</glyph>
<glyph name="rightanglebracket" format="2">
  <advance width="1032"/>
  <unicode hex="27E9"/>
  <outline>
    <contour>
      <point x="123.292" y="-169.388" type="line"/>
      <point x="11.19" y="-23.918000000000006" type="line"/>
      <point x="748.902" y="650.376" type="line"/>
      <point x="7.265999999999999" y="1357.568" type="line"/>
      <point x="132.448" y="1514.54" type="line"/>
      <point x="1000.174" y="748.756" type="line"/>
      <point x="1000.174" y="542.768" type="line"/>
    </contour>
  </outline>
</glyph>
<glyph name="f_f" format="2">
  <advance width="1433"/>
  <unicode hex="FB00"/>
  <outline>
    <contour>
      <point x="46.734" y="0.0" type="line"/>
      <point x="46.734" y="93.84" type="line"/>
      <point x="205.738" y="128.84" type="line"/>
      <point x="209.122" y="535.65" type="line"/>
      <point x="207.16" y="857.924" type="line"/>
      <point x="57.620000000000005" y="873.038" type="line"/>
      <point x="49.35" y="980.532" type="line"/>
      <point x="208.814" y="1001.3" type="line"/>
      <point x="210.738" y="1184.388" type="line" smooth="yes"/>
      <point x="212.008" y="1333.194"/>
      <point x="376.54" y="1492.38"/>
      <point x="510.448" y="1492.38" type="qcurve" smooth="yes"/>
      <point x="575.824" y="1492.38"/>
      <point x="683.39" y="1475.882"/>
      <point x="717.58" y="1465.076" type="qcurve" smooth="yes"/>
      <point x="744.196" y="1457.038" type="line"/>
      <point x="733.732" y="1333.084" type="line"/>
      <point x="710.614" y="1340.7" type="line" smooth="yes"/>
      <point x="694.96" y="1346.046"/>
      <point x="652.462" y="1354.43"/>
      <point x="629.116" y="1354.43" type="qcurve" smooth="yes"/>
      <point x="562.036" y="1354.43"/>
      <point x="482.34" y="1269.004"/>
      <point x="482.99399999999997" y="1169.802" type="qcurve" smooth="yes"/>
      <point x="483.956" y="998.494" type="line"/>
      <point x="921.238" y="998.494" type="line"/>
      <point x="923.162" y="1276.982" type="line" smooth="yes"/>
      <point x="923.124" y="1395.704"/>
      <point x="1072.424" y="1535.27"/>
      <point x="1206.3319999999999" y="1535.27" type="qcurve" smooth="yes"/>
      <point x="1267.784" y="1535.27"/>
      <point x="1360.962" y="1522.042"/>
      <point x="1392.536" y="1512.544" type="qcurve" smooth="yes"/>
      <point x="1422.422" y="1504.506" type="line"/>
      <point x="1411.958" y="1380.552" type="line"/>
      <point x="1389.494" y="1386.86" type="line" smooth="yes"/>
      <point x="1373.186" y="1391.552"/>
      <point x="1338.536" y="1397.32"/>
      <point x="1318.46" y="1397.32" type="qcurve" smooth="yes"/>
      <point x="1261.19" y="1397.32"/>
      <point x="1195.418" y="1333.666"/>
      <point x="1195.418" y="1265.856" type="qcurve" smooth="yes"/>
      <point x="1196.38" y="998.494" type="line"/>
      <point x="1411.304" y="998.494" type="line"/>
      <point x="1411.304" y="879.194" type="line"/>
      <point x="1196.034" y="872.0" type="line"/>
      <point x="1196.996" y="535.65" type="line"/>
      <point x="1207.536" y="128.84" type="line"/>
      <point x="1386.73" y="93.84" type="line"/>
      <point x="1386.73" y="0.0" type="line"/>
      <point x="782.892" y="0.0" type="line"/>
      <point x="782.892" y="93.84" type="line"/>
      <point x="918.162" y="128.84" type="line"/>
      <point x="921.546" y="535.65" type="line"/>
      <point x="919.584" y="857.924" type="line"/>
      <point x="902.048" y="872.654" type="line"/>
      <point x="483.61" y="875.27" type="line"/>
      <point x="484.572" y="535.65" type="line"/>
      <point x="495.11199999999997" y="128.84" type="line"/>
      <point x="646.078" y="93.84" type="line"/>
      <point x="646.078" y="0.0" type="line"/>
    </contour>
  </outline>
</glyph>
<glyph name="fl" format="2">
  <advance width="1413"/>
  <unicode hex="FB02"/>
  <outline>
    <contour>
      <point x="46.734" y="0.0" type="line"/>
      <point x="46.734" y="93.84" type="line"/>
      <point x="205.738" y="128.84" type="line"/>
      <point x="209.122" y="535.65" type="line"/>
      <point x="207.16" y="857.924" type="line"/>
      <point x="57.620000000000005" y="873.038" type="line"/>
      <point x="49.35" y="980.532" type="line"/>
      <point x="208.814" y="1001.3" type="line"/>
      <point x="210.738" y="1276.982" type="line" smooth="yes"/>
      <point x="210.7" y="1395.704"/>
      <point x="363.46" y="1535.27"/>
      <point x="497.368" y="1535.27" type="qcurve" smooth="yes"/>
      <point x="540.056" y="1535.27"/>
      <point x="630.242" y="1526.578"/>
      <point x="665.816" y="1519.194" type="qcurve" smooth="yes"/>
      <point x="736.778" y="1503.54" type="line"/>
      <point x="1137.9279999999999" y="1534.0" type="line"/>
      <point x="1176.658" y="1532.692" type="line"/>
      <point x="1211.422" y="1496.156" type="line"/>
      <point x="1209.422" y="527.0" type="line"/>
      <point x="1211.422" y="128.84" type="line"/>
      <point x="1362.156" y="93.84" type="line"/>
      <point x="1362.156" y="0.0" type="line"/>
      <point x="787.086" y="0.0" type="line"/>
      <point x="787.086" y="93.84" type="line"/>
      <point x="931.048" y="128.84" type="line"/>
      <point x="933.048" y="527.0" type="line"/>
      <point x="931.048" y="1361.468" type="line"/>
      <point x="692.834" y="1396.742" type="line" smooth="yes"/>
      <point x="678.91" y="1399.05"/>
      <point x="640.34" y="1400.78"/>
      <point x="626.4159999999999" y="1400.78" type="qcurve" smooth="yes"/>
      <point x="555.34" y="1400.78"/>
      <point x="482.99399999999997" y="1333.666"/>
      <point x="482.99399999999997" y="1265.856" type="qcurve" smooth="yes"/>
      <point x="483.956" y="998.494" type="line"/>
      <point x="758.226" y="998.494" type="line"/>
      <point x="758.226" y="880.924" type="line"/>
      <point x="483.61" y="872.0" type="line"/>
      <point x="484.572" y="535.65" type="line"/>
      <point x="495.11199999999997" y="128.84" type="line"/>
      <point x="651.31" y="93.84" type="line"/>
      <point x="651.31" y="0.0" type="line"/>
    </contour>
  </outline>
</glyph>
<glyph name="f_f_i" format="2">
  <advance width="2135"/>
  <unicode hex="FB03"/>
  <outline>
    <contour>
      <point x="46.734" y="0.0" type="line"/>
      <point x="46.734" y="93.84" type="line"/>
      <point x="205.738" y="128.84" type="line"/>
      <point x="209.122" y="535.65" type="line"/>
      <point x="207.16" y="857.924" type="line"/>
      <point x="57.620000000000005" y="873.038" type="line"/>
      <point x="49.35" y="980.532" type="line"/>
      <point x="208.814" y="1001.3" type="line"/>
      <point x="210.738" y="1184.388" type="line" smooth="yes"/>
      <point x="212.008" y="1333.194"/>
      <point x="376.54" y="1492.38"/>
      <point x="510.448" y="1492.38" type="qcurve" smooth="yes"/>
      <point x="574.516" y="1492.38"/>
      <point x="684.698" y="1475.882"/>
      <point x="720.196" y="1464.422" type="qcurve" smooth="yes"/>
      <point x="744.196" y="1457.038" type="line"/>
      <point x="733.732" y="1333.084" type="line"/>
      <point x="713.23" y="1340.046" type="line" smooth="yes"/>
      <point x="697.576" y="1345.392"/>
      <point x="653.77" y="1354.43"/>
      <point x="629.116" y="1354.43" type="qcurve" smooth="yes"/>
      <point x="562.036" y="1354.43"/>
      <point x="482.34" y="1269.004"/>
      <point x="482.99399999999997" y="1169.802" type="qcurve" smooth="yes"/>
      <point x="483.956" y="997.84" type="line"/>
      <point x="923.2" y="997.84" type="line"/>
      <point x="924.47" y="1235.78" type="line" smooth="yes"/>
      <point x="925.086" y="1389.818"/>
      <point x="1106.622" y="1535.924"/>
      <point x="1240.53" y="1535.27" type="qcurve" smooth="yes"/>
      <point x="1325.526" y="1534.616"/>
      <point x="1441.594" y="1509.616"/>
      <point x="1477.092" y="1492.924" type="qcurve" smooth="yes"/>
      <point x="1499.13" y="1482.924" type="line"/>
      <point x="1488.666" y="1358.97" type="line"/>
      <point x="1466.202" y="1368.548" type="line" smooth="yes"/>
      <point x="1442.046" y="1378.472"/>
      <point x="1370.118" y="1397.974"/>
      <point x="1334.346" y="1397.974" type="qcurve" smooth="yes"/>
      <point x="1279.692" y="1397.974"/>
      <point x="1196.726" y="1324.32"/>
      <point x="1197.38" y="1221.194" type="qcurve" smooth="yes"/>
      <point x="1198.342" y="998.494" type="line"/>
      <point x="1846.702" y="1014.532" type="line"/>
      <point x="1904.4279999999999" y="1014.532" type="line"/>
      <point x="1934.348" y="972.072" type="line"/>
      <point x="1927.348" y="535.65" type="line"/>
      <point x="1929.348" y="128.84" type="line"/>
      <point x="2090.428" y="93.84" type="line"/>
      <point x="2090.428" y="0.0" type="line"/>
      <point x="1498.24" y="0.0" type="line"/>
      <point x="1498.24" y="93.84" type="line"/>
      <point x="1649.32" y="128.84" type="line"/>
      <point x="1651.32" y="535.65" type="line"/>
      <point x="1646.05" y="861.308" type="line"/>
      <point x="1619.05" y="882.308" type="line"/>
      <point x="1197.996" y="872.0" type="line"/>
      <point x="1198.958" y="535.65" type="line"/>
      <point x="1209.498" y="128.84" type="line"/>
      <point x="1361.772" y="93.84" type="line"/>
      <point x="1361.772" y="0.0" type="line"/>
      <point x="777.66" y="0.0" type="line"/>
      <point x="777.66" y="93.84" type="line"/>
      <point x="920.124" y="128.84" type="line"/>
      <point x="923.508" y="535.65" type="line"/>
      <point x="921.546" y="864.152" type="line"/>
      <point x="483.61" y="875.27" type="line"/>
      <point x="484.572" y="535.65" type="line"/>
      <point x="495.11199999999997" y="128.84" type="line"/>
      <point x="640.846" y="93.84" type="line"/>
      <point x="640.846" y="0.0" type="line"/>
    </contour>
    <contour>
      <point x="1597.092" y="1334.232" type="qcurve" smooth="yes"/>
      <point x="1597.092" y="1401.882"/>
      <point x="1690.81" y="1479.722"/>
      <point x="1778.106" y="1479.722" type="qcurve" smooth="yes"/>
      <point x="1860.71" y="1479.722"/>
      <point x="1960.85" y="1399.958"/>
      <point x="1960.504" y="1334.232" type="qcurve" smooth="yes"/>
      <point x="1960.504" y="1268.658"/>
      <point x="1866.786" y="1192.894"/>
      <point x="1778.798" y="1192.894" type="qcurve" smooth="yes"/>
      <point x="1696.54" y="1192.894"/>
      <point x="1597.092" y="1272.658"/>
    </contour>
  </outline>
</glyph>
<glyph name="De.bgr" format="2">
  <advance width="1629"/>
  <outline>
    <contour>
      <point x="1172.096" y="20.413999999999998" type="line"/>
      <point x="925.974" y="683.776" type="line"/>
      <point x="726.97" y="1201.982" type="line"/>
      <point x="535.118" y="685.658" type="line"/>
      <point x="298.11" y="20.067999999999998" type="line"/>
      <point x="140.962" y="20.067999999999998" type="line"/>
      <point x="406.354" y="731.814" type="line"/>
      <point x="694.316" y="1505.232" type="line"/>
      <point x="921.846" y="1505.232" type="line"/>
      <point x="1207.808" y="753.426" type="line"/>
      <point x="1487.698" y="20.413999999999998" type="line"/>
    </contour>
    <contour>
      <point x="1461.398" y="-338.0" type="line"/>
      <point x="1382.018" y="0.0" type="line"/>
      <point x="246.95" y="0.0" type="line"/>
      <point x="167.57" y="-338.0" type="line"/>
      <point x="28.27" y="-338.0" type="line"/>
      <point x="38.27" y="125.3" type="line"/>
      <point x="1590.698" y="125.3" type="line"/>
      <point x="1600.698" y="-338.0" type="line"/>
    </contour>
  </outline>
</glyph>
<glyph name="Zhe.bgr" format="2">
  <advance width="2271"/>
  <outline>
    <contour>
      <point x="797.984" y="0.0" type="line"/>
      <point x="797.984" y="110.38" type="line"/>
      <point x="984.532" y="145.38" type="line"/>
      <point x="986.532" y="754.0" type="line"/>
      <point x="984.532" y="1341.62" type="line"/>
      <point x="793.452" y="1375.62" type="line"/>
      <point x="793.452" y="1500.0" type="line"/>
      <point x="1465.9859999999999" y="1500.0" type="line"/>
      <point x="1465.9859999999999" y="1375.62" type="line"/>
      <point x="1275.598" y="1341.62" type="line"/>
      <point x="1273.598" y="754.0" type="line"/>
      <point x="1275.598" y="145.38" type="line"/>
      <point x="1462.146" y="110.38" type="line"/>
      <point x="1462.146" y="0.0" type="line"/>
    </contour>
    <contour>
      <point x="1130.238" y="383.496" type="line"/>
      <point x="1130.238" y="566.256" type="line"/>
      <point x="1822.9859999999999" y="1333.156" type="line"/>
      <point x="1679.944" y="1375.966" type="line"/>
      <point x="1679.944" y="1500.0" type="line"/>
      <point x="2185.286" y="1500.0" type="line"/>
      <point x="2185.286" y="1375.966" type="line"/>
      <point x="2006.94" y="1333.156" type="line"/>
      <point x="1570.282" y="853.228" type="line"/>
      <point x="1532.552" y="813.152" type="line"/>
    </contour>
    <contour>
      <point x="1413.108" y="776.088" type="line"/>
      <point x="1607.38" y="976.36" type="line"/>
      <point x="2140.928" y="145.38" type="line"/>
      <point x="2281.32" y="110.38" type="line"/>
      <point x="2281.32" y="0.0" type="line"/>
      <point x="1667.356" y="0.0" type="line"/>
      <point x="1667.356" y="110.38" type="line"/>
      <point x="1814.942" y="145.38" type="line"/>
    </contour>
    <contour>
      <point x="1130.238" y="381.766" type="line"/>
      <point x="720.384" y="811.422" type="line"/>
      <point x="674.004" y="853.228" type="line"/>
      <point x="237.346" y="1333.156" type="line"/>
      <point x="60.73" y="1375.966" type="line"/>
      <point x="60.73" y="1500.0" type="line"/>
      <point x="580.186" y="1500.0" type="line"/>
      <point x="580.186" y="1375.966" type="line"/>
      <point x="437.144" y="1333.156" type="line"/>
      <point x="1130.238" y="566.256" type="line"/>
    </contour>
    <contour>
      <point x="847.022" y="776.088" type="line"/>
      <point x="445.188" y="145.38" type="line"/>
      <point x="592.774" y="110.38" type="line"/>
      <point x="592.774" y="0.0" type="line"/>
      <point x="-10.81" y="0.0" type="line"/>
      <point x="-10.81" y="110.38" type="line"/>
      <point x="134.35" y="145.38" type="line"/>
      <point x="667.898" y="976.36" type="line"/>
    </contour>
  </outline>
</glyph>
<glyph name="breve.cyr" format="2">
  <advance width="1022"/>
  <outline>
    <contour>
      <point x="512.038" y="1171.0" type="qcurve" smooth="yes"/>
      <point x="375.392" y="1171.0"/>
      <point x="187.818" y="1307.836"/>
      <point x="143.16" y="1453.338" type="qcurve"/>
      <point x="294.346" y="1526.836" type="line"/>
      <point x="326.232" y="1417.262"/>
      <point x="426.0" y="1314.878"/>
      <point x="512.038" y="1314.878" type="qcurve" smooth="yes"/>
      <point x="598.076" y="1314.878"/>
      <point x="697.844" y="1417.262"/>
      <point x="729.73" y="1526.836" type="qcurve"/>
      <point x="880.916" y="1453.338" type="line"/>
      <point x="836.258" y="1307.836"/>
      <point x="648.684" y="1171.0"/>
    </contour>
  </outline>
</glyph>
<glyph name="cedillacomb.case" format="2">
  <advance width="1024"/>
  <outline>
    <contour>
      <point x="570.266" y="-2.616" type="line"/>
      <point x="499.076" y="-134.502" type="line"/>
      <point x="517.152" y="-129.464"/>
      <point x="582.418" y="-121.156"/>
      <point x="615.532" y="-121.156" type="qcurve" smooth="yes"/>
      <point x="700.528" y="-121.156"/>
      <point x="821.562" y="-217.734"/>
      <point x="821.562" y="-313.54" type="qcurve" smooth="yes"/>
      <point x="821.562" y="-418.194"/>
      <point x="663.414" y="-538.768"/>
      <point x="545.346" y="-538.768" type="qcurve" smooth="yes"/>
      <point x="448.042" y="-538.768"/>
      <point x="284.236" y="-496.962"/>
      <point x="222.468" y="-449.654" type="qcurve"/>
      <point x="276.89" y="-342.73" type="line"/>
      <point x="314.772" y="-368.152"/>
      <point x="437.696" y="-411.308"/>
      <point x="507.924" y="-411.308" type="qcurve" smooth="yes"/>
      <point x="559.536" y="-411.308"/>
      <point x="632.266" y="-360.0"/>
      <point x="632.266" y="-313.924" type="qcurve" smooth="yes"/>
      <point x="632.266" y="-271.0"/>
      <point x="571.882" y="-225.654"/>
      <point x="519.882" y="-225.654" type="qcurve" smooth="yes"/>
      <point x="486.114" y="-225.654"/>
      <point x="433.308" y="-233.654"/>
      <point x="415.27" y="-240.0" type="qcurve"/>
      <point x="350.388" y="-160.346" type="line"/>
      <point x="467.692" y="53.422" type="line"/>
    </contour>
  </outline>
</glyph>
<glyph name="circumflexcombstack.case" format="2">
  <advance width="1024"/>
  <outline>
    <contour>
      <point x="512.0" y="1964.486" type="qcurve" smooth="yes"/>
      <point x="548.422" y="1964.486"/>
      <point x="594.11" y="1934.874"/>
      <point x="636.532" y="1894.608" type="qcurve" smooth="yes"/>
      <point x="859.878" y="1684.62" type="line"/>
      <point x="780.266" y="1601.852" type="line"/>
      <point x="512.0" y="1766.688" type="line"/>
      <point x="247.65800000000002" y="1606.43" type="line"/>
      <point x="164.122" y="1684.62" type="line"/>
      <point x="387.468" y="1894.608" type="line" smooth="yes"/>
      <point x="437.468" y="1941.49"/>
      <point x="475.578" y="1964.486"/>
    </contour>
  </outline>
</glyph>
<glyph name="commaaccentcomb.case" format="2">
  <advance width="1024"/>
  <outline>
    <contour>
      <point x="351.574" y="-621.802" type="line"/>
      <point x="393.65" y="-593.186"/>
      <point x="491.384" y="-487.874"/>
      <point x="510.228" y="-425.798" type="qcurve"/>
      <point x="445.0" y="-425.144"/>
      <point x="367.654" y="-347.608"/>
      <point x="367.654" y="-288.878" type="qcurve" smooth="yes"/>
      <point x="367.654" y="-231.494"/>
      <point x="448.422" y="-146.034"/>
      <point x="513.574" y="-146.034" type="qcurve" smooth="yes"/>
      <point x="575.418" y="-146.034"/>
      <point x="661.916" y="-222.494"/>
      <point x="661.916" y="-299.608" type="qcurve" smooth="yes"/>
      <point x="661.916" y="-414.878"/>
      <point x="502.342" y="-628.954"/>
      <point x="402.498" y="-682.418" type="qcurve"/>
    </contour>
  </outline>
</glyph>
<glyph name="de.bgr" format="2">
  <advance width="1328"/>
  <outline>
    <contour>
      <point x="362.72" y="513.726" type="qcurve" smooth="yes"/>
      <point x="362.72" y="321.384"/>
      <point x="507.344" y="140.874"/>
      <point x="624.812" y="140.874" type="qcurve" smooth="yes"/>
      <point x="708.432" y="140.874"/>
      <point x="836.132" y="207.722"/>
      <point x="874.596" y="263.954" type="qcurve"/>
      <point x="875.904" y="806.232" type="line"/>
      <point x="845.056" y="852.08"/>
      <point x="731.626" y="906.274"/>
      <point x="648.428" y="906.274" type="qcurve" smooth="yes"/>
      <point x="521.998" y="906.274"/>
      <point x="362.72" y="702.912"/>
    </contour>
    <contour>
      <point x="870.904" y="16.494" type="qcurve" smooth="yes"/>
      <point x="872.558" y="122.35" type="line"/>
      <point x="817.482" y="62.464"/>
      <point x="642.638" y="-9.0"/>
      <point x="526.448" y="-9.0" type="qcurve" smooth="yes"/>
      <point x="333.376" y="-9.0"/>
      <point x="63.502" y="253.654"/>
      <point x="63.502" y="489.764" type="qcurve" smooth="yes"/>
      <point x="63.502" y="743.452"/>
      <point x="357.414" y="1037.3"/>
      <point x="586.448" y="1037.3" type="qcurve" smooth="yes"/>
      <point x="674.638" y="1037.3"/>
      <point x="833.292" y="990.376"/>
      <point x="884.752" y="949.608" type="qcurve"/>
      <point x="945.212" y="1025.57" type="line"/>
      <point x="1292.628" y="990.57" type="line"/>
      <point x="1292.628" y="883.73" type="line"/>
      <point x="1152.624" y="853.882" type="line"/>
      <point x="1145.97" y="436.65" type="line"/>
      <point x="1149.316" y="69.44" type="line" smooth="yes"/>
      <point x="1152.354" y="-228.012"/>
      <point x="847.3908" y="-509.232"/>
      <point x="567.972" y="-509.232" type="qcurve" smooth="yes"/>
      <point x="463.4579024389994" y="-509.232"/>
      <point x="316.372" y="-469.194"/>
      <point x="274.258" y="-440.81" type="qcurve"/>
      <point x="250.912" y="-490.464" type="line"/>
      <point x="140.34199999999998" y="-490.464" type="line"/>
      <point x="140.34199999999998" y="-126.00800000000001" type="line"/>
      <point x="255.334" y="-126.00800000000001" type="line"/>
      <point x="273.026" y="-199.81" type="line" smooth="yes"/>
      <point x="293.7699017200604" y="-282.609059113231"/>
      <point x="415.4129879518222" y="-379.548"/>
      <point x="541.022" y="-379.548" type="qcurve" smooth="yes"/>
      <point x="697.7152934131948" y="-379.548"/>
      <point x="867.904" y="-187.742"/>
    </contour>
  </outline>
</glyph>
<glyph name="dotbelowcomb.case" format="2">
  <advance width="1024"/>
  <outline>
    <contour>
      <point x="377.582" y="-297.418" type="qcurve" smooth="yes"/>
      <point x="377.582" y="-233.536"/>
      <point x="446.81" y="-165.654"/>
      <point x="512.346" y="-165.654" type="qcurve" smooth="yes"/>
      <point x="573.882" y="-165.654"/>
      <point x="647.11" y="-238.228"/>
      <point x="647.11" y="-297.418" type="qcurve" smooth="yes"/>
      <point x="647.11" y="-360.3"/>
      <point x="578.574" y="-428.528"/>
      <point x="512.346" y="-428.528" type="qcurve" smooth="yes"/>
      <point x="450.81" y="-428.528"/>
      <point x="377.582" y="-356.3"/>
    </contour>
  </outline>
</glyph>
<glyph name="eight.lc" format="2">
  <advance width="1139"/>
  <outline>
    <contour>
      <point x="42.0" y="327.73" type="qcurve" smooth="yes"/>
      <point x="42.0" y="487.924"/>
      <point x="285.878" y="696.118"/>
      <point x="472.664" y="746.73" type="qcurve"/>
      <point x="555.124" y="686.152" type="line"/>
      <point x="439.5" y="634.73"/>
      <point x="279.88" y="457.73"/>
      <point x="279.88" y="334.08" type="qcurve" smooth="yes"/>
      <point x="279.88" y="217.654"/>
      <point x="428.428" y="93.958"/>
      <point x="557.204" y="93.958" type="qcurve" smooth="yes"/>
      <point x="676.634" y="93.958"/>
      <point x="832.528" y="226.194"/>
      <point x="832.528" y="331.16" type="qcurve" smooth="yes"/>
      <point x="832.528" y="425.43"/>
      <point x="713.296" y="549.122"/>
      <point x="530.988" y="623.392" type="qcurve" smooth="yes"/>
      <point x="322.266" y="706.89"/>
      <point x="155.958" y="891.658"/>
      <point x="160.34199999999998" y="1033.27" type="qcurve" smooth="yes"/>
      <point x="164.726" y="1182.384"/>
      <point x="415.87" y="1366.228"/>
      <point x="619.626" y="1366.228" type="qcurve" smooth="yes"/>
      <point x="810.918" y="1366.228"/>
      <point x="1029.256" y="1206.612"/>
      <point x="1030.564" y="1084.806" type="qcurve" smooth="yes"/>
      <point x="1031.872" y="956.266"/>
      <point x="852.112" y="783.114"/>
      <point x="691.394" y="720.498" type="qcurve"/>
      <point x="591.36" y="777.654" type="line"/>
      <point x="693.942" y="832.038"/>
      <point x="814.524" y="972.806"/>
      <point x="814.524" y="1063.996" type="qcurve" smooth="yes"/>
      <point x="814.524" y="1146.654"/>
      <point x="700.554" y="1244.194"/>
      <point x="608.242" y="1244.194" type="qcurve" smooth="yes"/>
      <point x="516.698" y="1244.194"/>
      <point x="392.036" y="1145.92"/>
      <point x="392.036" y="1067.84" type="qcurve" smooth="yes"/>
      <point x="392.036" y="983.11"/>
      <point x="507.188" y="875.532"/>
      <point x="704.956" y="800.376" type="qcurve" smooth="yes"/>
      <point x="906.374" y="723.798"/>
      <point x="1100.636" y="537.034"/>
      <point x="1100.636" y="374.612" type="qcurve" smooth="yes"/>
      <point x="1100.636" y="205.346"/>
      <point x="805.0699999999999" y="-22.73"/>
      <point x="550.204" y="-22.73" type="qcurve" smooth="yes"/>
      <point x="300.376" y="-22.73"/>
      <point x="42.0" y="163.498"/>
    </contour>
  </outline>
</glyph>
<glyph name="five.lf" format="2">
  <advance width="1096"/>
  <outline>
    <contour>
      <point x="-2.1519999999999992" y="135.388" type="qcurve"/>
      <point x="72.384" y="260.38" type="line"/>
      <point x="128.692" y="208.958"/>
      <point x="300.658" y="128.646"/>
      <point x="421.164" y="128.646" type="qcurve" smooth="yes"/>
      <point x="546.13" y="128.646"/>
      <point x="723.366" y="281.688"/>
      <point x="723.366" y="451.266" type="qcurve" smooth="yes"/>
      <point x="723.366" y="610.578"/>
      <point x="470.16" y="774.548"/>
      <point x="274.536" y="774.548" type="qcurve" smooth="yes"/>
      <point x="173.608" y="774.548" type="line"/>
      <point x="134.76" y="823.358" type="line"/>
      <point x="193.418" y="1467.0" type="line"/>
      <point x="220.418" y="1500.0" type="line"/>
      <point x="955.538" y="1500.0" type="line"/>
      <point x="943.116" y="1269.678" type="line"/>
      <point x="307.182" y="1269.678" type="line"/>
      <point x="295.452" y="1256.256" type="line"/>
      <point x="254.87" y="896.696" type="line"/>
      <point x="419.014" y="941.464" type="line"/>
      <point x="714.42" y="941.464"/>
      <point x="1031.0819999999999" y="705.776"/>
      <point x="1031.0819999999999" y="489.89" type="qcurve" smooth="yes"/>
      <point x="1031.0819999999999" y="252.35"/>
      <point x="718.668" y="-23.384"/>
      <point x="486.106" y="-23.384" type="qcurve" smooth="yes"/>
      <point x="319.612" y="-23.384"/>
      <point x="63.042" y="68.848"/>
    </contour>
  </outline>
</glyph>
<glyph name="ghe.bgr" format="2">
  <advance width="988"/>
  <outline>
    <contour>
      <point x="909.1" y="768.004" type="qcurve" smooth="yes"/>
      <point x="909.1" y="889.536"/>
      <point x="723.652" y="1041.03"/>
      <point x="523.204" y="1041.03" type="qcurve" smooth="yes"/>
      <point x="432.71" y="1041.03"/>
      <point x="304.566" y="1007.338"/>
      <point x="258.954" y="977.338" type="qcurve"/>
      <point x="241.57" y="1017.3" type="line"/>
      <point x="137.768" y="1017.3" type="line"/>
      <point x="137.768" y="721.646" type="line"/>
      <point x="260.722" y="721.646" type="line"/>
      <point x="274.03" y="789.228" type="line" smooth="yes"/>
      <point x="286.106" y="848.612"/>
      <point x="396.254" y="919.996"/>
      <point x="495.33" y="919.996" type="qcurve" smooth="yes"/>
      <point x="575.406" y="919.996"/>
      <point x="648.794" y="865.608"/>
      <point x="648.794" y="809.296" type="qcurve" smooth="yes"/>
      <point x="648.794" y="748.33"/>
      <point x="541.3163260218528" y="657.1364630671465"/>
      <point x="385.98" y="607.17" type="qcurve" smooth="yes"/>
      <point x="198.37199999999999" y="547.018"/>
      <point x="51.73" y="389.638"/>
      <point x="51.73" y="273.262" type="qcurve" smooth="yes"/>
      <point x="51.73" y="146.65"/>
      <point x="256.106" y="-23.076"/>
      <point x="457.938" y="-23.076" type="qcurve" smooth="yes"/>
      <point x="570.546" y="-23.076"/>
      <point x="732.112" y="20.924"/>
      <point x="791.302" y="66.08" type="qcurve"/>
      <point x="827.534" y="0.0" type="line"/>
      <point x="929.952" y="0.0" type="line"/>
      <point x="929.952" y="337.27" type="line"/>
      <point x="807.728" y="337.27" type="line"/>
      <point x="796.036" y="282.076" type="line" smooth="yes"/>
      <point x="777.268" y="194.73"/>
      <point x="626.58" y="97.304"/>
      <point x="509.964" y="97.304" type="qcurve" smooth="yes"/>
      <point x="420.306" y="97.304"/>
      <point x="322.07" y="170.81"/>
      <point x="322.07" y="228.35" type="qcurve" smooth="yes"/>
      <point x="322.07" y="300.776"/>
      <point x="433.226" y="378.932"/>
      <point x="566.42" y="427.088" type="qcurve" smooth="yes"/>
      <point x="764.0421220505121" y="497.2517136102948"/>
      <point x="909.1" y="648.97"/>
    </contour>
  </outline>
</glyph>
<glyph name="gravecomb.case" format="2">
  <advance width="1024"/>
  <outline>
    <contour>
      <point x="260.164" y="1928.456" type="qcurve" smooth="yes"/>
      <point x="260.164" y="1966.57"/>
      <point x="328.43" y="2020.642"/>
      <point x="368.312" y="2020.642" type="qcurve" smooth="yes"/>
      <point x="409.81" y="2020.642"/>
      <point x="496.384" y="1951.722"/>
      <point x="534.498" y="1906.418" type="qcurve" smooth="yes"/>
      <point x="733.042" y="1675.266" type="line"/>
      <point x="654.198" y="1595.114" type="line"/>
      <point x="349.468" y="1796.924" type="line" smooth="yes"/>
      <point x="303.624" y="1827.0"/>
      <point x="260.164" y="1882.494"/>
    </contour>
  </outline>
</glyph>
<glyph name="hard.bgr" format="2">
  <advance width="1171"/>
  <outline>
    <contour>
      <point x="536.454" y="560.312" type="line" smooth="yes"/>
      <point x="481.26" y="486.772"/>
      <point x="442.72" y="365.578"/>
      <point x="442.374" y="299.228" type="qcurve" smooth="yes"/>
      <point x="442.028" y="205.996"/>
      <point x="537.956" y="102.878"/>
      <point x="637.386" y="102.878" type="qcurve" smooth="yes"/>
      <point x="743.2" y="102.878"/>
      <point x="837.36" y="232.802"/>
      <point x="837.36" y="332.996" type="qcurve" smooth="yes"/>
      <point x="837.36" y="423.958"/>
      <point x="744.3199480519725" y="539.46"/>
      <point x="626.6179999999999" y="539.46" type="qcurve" smooth="yes"/>
      <point x="429.01" y="539.46" type="line"/>
      <point x="429.01" y="661.76" type="line"/>
      <point x="653.952" y="661.76" type="line" smooth="yes"/>
      <point x="893.2343453237592" y="661.76"/>
      <point x="1125.084" y="487.646"/>
      <point x="1125.084" y="334.38" type="qcurve" smooth="yes"/>
      <point x="1125.084" y="173.46"/>
      <point x="869.5219999999999" y="-20.422"/>
      <point x="638.04" y="-22.384" type="qcurve" smooth="yes"/>
      <point x="385.756" y="-24.346"/>
      <point x="166.422" y="152.266"/>
      <point x="166.422" y="297.76" type="qcurve" smooth="yes"/>
      <point x="166.422" y="403.68399999999997"/>
      <point x="258.042" y="571.38"/>
      <point x="323.97" y="662.772" type="qcurve" smooth="yes"/>
      <point x="491.122" y="884.0" type="line"/>
      <point x="214.722" y="884.0" type="line"/>
      <point x="185.992" y="731.35" type="line"/>
      <point x="62.076" y="731.35" type="line"/>
      <point x="62.076" y="1017.3" type="line"/>
      <point x="800.184" y="1017.3" type="line"/>
      <point x="800.184" y="911.0" type="line"/>
    </contour>
  </outline>
</glyph>
<glyph name="horizontalbarlc" format="2">
  <advance width="849"/>
  <outline>
    <contour>
      <point x="375.356" y="653.924" type="line"/>
      <point x="48.654" y="653.924" type="line"/>
      <point x="60.692" y="782.0" type="line"/>
      <point x="406.706" y="782.0" type="line"/>
      <point x="725.648" y="782.0" type="line"/>
      <point x="725.648" y="653.924" type="line"/>
    </contour>
  </outline>
</glyph>
<glyph name="macronbelowcomb.case" format="2">
  <advance width="1024"/>
  <outline>
    <contour>
      <point x="196.624" y="-368.604" type="line"/>
      <point x="196.624" y="-211.882" type="line"/>
      <point x="827.376" y="-211.882" type="line"/>
      <point x="827.376" y="-368.604" type="line"/>
    </contour>
  </outline>
</glyph>
<glyph name="macroncomb.case" format="2">
  <advance width="1024"/>
  <outline>
    <contour>
      <point x="196.624" y="1665.27" type="line"/>
      <point x="196.624" y="1842.92" type="line"/>
      <point x="827.376" y="1842.92" type="line"/>
      <point x="827.376" y="1665.27" type="line"/>
    </contour>
  </outline>
</glyph>
<glyph name="nine.lf" format="2">
  <advance width="1269"/>
  <outline>
    <contour>
      <point x="52.038" y="997.848" type="qcurve" smooth="yes"/>
      <point x="52.038" y="1232.27"/>
      <point x="349.22" y="1521.422"/>
      <point x="587.246" y="1521.422" type="qcurve" smooth="yes"/>
      <point x="857.314" y="1521.422"/>
      <point x="1198.88" y="1167.456"/>
      <point x="1198.88" y="860.198" type="qcurve" smooth="yes"/>
      <point x="1198.88" y="507.632"/>
      <point x="712.482" y="4.704000000000001"/>
      <point x="288.232" y="-76.96600000000001" type="qcurve"/>
      <point x="264.688" y="36.257999999999996" type="line"/>
      <point x="549.464" y="115.578"/>
      <point x="895.89" y="509.426"/>
      <point x="895.89" y="868.042" type="qcurve" smooth="yes"/>
      <point x="895.89" y="1150.262"/>
      <point x="719.026" y="1401.772"/>
      <point x="591.402" y="1401.772" type="qcurve" smooth="yes"/>
      <point x="456.082" y="1401.772"/>
      <point x="330.45799999999997" y="1207.688"/>
      <point x="330.45799999999997" y="1032.578" type="qcurve" smooth="yes"/>
      <point x="330.45799999999997" y="852.468"/>
      <point x="474.63" y="697.962"/>
      <point x="607.566" y="697.962" type="qcurve" smooth="yes"/>
      <point x="642.49" y="697.962"/>
      <point x="715.494" y="713.924"/>
      <point x="743.304" y="722.886" type="qcurve"/>
      <point x="780.266" y="643.776" type="line"/>
      <point x="746.072" y="609.506"/>
      <point x="614.422" y="553.544"/>
      <point x="514.574" y="553.544" type="qcurve" smooth="yes"/>
      <point x="300.654" y="553.544"/>
      <point x="52.038" y="790.776"/>
    </contour>
  </outline>
</glyph>
<glyph name="nine.tab" format="2">
  <advance width="1146"/>
  <outline>
    <contour>
      <point x="1097.32" y="864.122" type="qcurve" smooth="yes"/>
      <point x="1097.32" y="511.556"/>
      <point x="647.082" y="8.628000000000004"/>
      <point x="251.608" y="-73.042" type="qcurve"/>
      <point x="235.258" y="40.182" type="line"/>
      <point x="487.988" y="119.502"/>
      <point x="800.87" y="513.35"/>
      <point x="800.87" y="871.966" type="qcurve" smooth="yes"/>
      <point x="800.87" y="1154.186"/>
      <point x="646.896" y="1402.426"/>
      <point x="524.504" y="1402.426" type="qcurve" smooth="yes"/>
      <point x="423.002" y="1402.426"/>
      <point x="306.07" y="1212.152"/>
      <point x="306.07" y="1036.502" type="qcurve" smooth="yes"/>
      <point x="306.07" y="856.392"/>
      <point x="424.736" y="701.886"/>
      <point x="521.048" y="701.886" type="qcurve" smooth="yes"/>
      <point x="577.554" y="701.886"/>
      <point x="643.364" y="719.156"/>
      <point x="669.212" y="728.772" type="qcurve"/>
      <point x="703.558" y="647.7" type="line"/>
      <point x="671.98" y="613.43"/>
      <point x="538.3679999999999" y="557.468"/>
      <point x="458.14" y="557.468" type="qcurve" smooth="yes"/>
      <point x="259.262" y="557.468"/>
      <point x="29.612" y="794.7"/>
      <point x="29.612" y="982.806" type="qcurve" smooth="yes"/>
      <point x="29.612" y="1236.194"/>
      <point x="307.174" y="1522.076"/>
      <point x="528.85" y="1522.076" type="qcurve" smooth="yes"/>
      <point x="779.952" y="1522.076"/>
      <point x="1097.32" y="1171.38"/>
    </contour>
  </outline>
</glyph>
<glyph name="ringcomb.case" format="2">
  <advance width="1024"/>
  <outline>
    <contour>
      <point x="274.932" y="1834.11" type="qcurve" smooth="yes"/>
      <point x="274.932" y="1931.684"/>
      <point x="410.426" y="2061.486"/>
      <point x="512.0" y="2061.486" type="qcurve" smooth="yes"/>
      <point x="613.574" y="2061.486"/>
      <point x="749.068" y="1931.684"/>
      <point x="749.068" y="1834.11" type="qcurve" smooth="yes"/>
      <point x="749.068" y="1736.536"/>
      <point x="613.574" y="1606.734"/>
      <point x="512.0" y="1606.734" type="qcurve" smooth="yes"/>
      <point x="410.426" y="1606.734"/>
      <point x="274.932" y="1736.536"/>
    </contour>
    <contour>
      <point x="401.734" y="1834.11" type="qcurve" smooth="yes"/>
      <point x="401.734" y="1784.65"/>
      <point x="461.54" y="1723.844"/>
      <point x="512.0" y="1723.844" type="qcurve" smooth="yes"/>
      <point x="565.46" y="1723.844"/>
      <point x="622.266" y="1780.304"/>
      <point x="622.266" y="1834.11" type="qcurve" smooth="yes"/>
      <point x="622.266" y="1883.224"/>
      <point x="562.46" y="1944.376"/>
      <point x="512.0" y="1944.376" type="qcurve" smooth="yes"/>
      <point x="458.54" y="1944.376"/>
      <point x="401.734" y="1887.916"/>
    </contour>
  </outline>
</glyph>
<glyph name="seven.lf" format="2">
  <advance width="1046"/>
  <outline>
    <contour>
      <point x="33.342" y="1055.096" type="line"/>
      <point x="47.73" y="1500.0" type="line"/>
      <point x="1053.162" y="1500.0" type="line"/>
      <point x="1053.162" y="1379.244" type="line"/>
      <point x="729.77" y="636.072" type="line"/>
      <point x="505.014" y="-17.497999999999998" type="line"/>
      <point x="259.916" y="-17.497999999999998" type="line"/>
      <point x="259.916" y="58.616" type="line"/>
      <point x="569.904" y="672.422" type="line"/>
      <point x="853.87" y="1253.64" type="line"/>
      <point x="826.292" y="1275.256" type="line"/>
      <point x="189.266" y="1275.256" type="line"/>
      <point x="154.65" y="1055.096" type="line"/>
    </contour>
  </outline>
</glyph>
<glyph name="soft.bgr" format="2">
  <advance width="1191"/>
  <outline>
    <contour>
      <point x="662.66" y="-22.384" type="qcurve" smooth="yes"/>
      <point x="402.072" y="-24.346"/>
      <point x="191.468" y="151.38"/>
      <point x="191.468" y="311.874" type="qcurve" smooth="yes"/>
      <point x="191.468" y="367.68"/>
      <point x="194.122" y="475.642"/>
      <point x="194.122" y="491.338" type="qcurve" smooth="yes"/>
      <point x="189.814" y="847.19" type="line"/>
      <point x="43.89" y="877.19" type="line"/>
      <point x="43.89" y="984.684" type="line"/>
      <point x="389.774" y="1017.992" type="line"/>
      <point x="439.652" y="1017.992" type="line"/>
      <point x="470.88" y="977.494" type="line"/>
      <point x="469.88" y="661.76" type="line"/>
      <point x="678.572" y="661.76" type="line" smooth="yes"/>
      <point x="915.248" y="662.106"/>
      <point x="1144.704" y="487.646"/>
      <point x="1144.704" y="334.38" type="qcurve" smooth="yes"/>
      <point x="1144.704" y="173.46"/>
      <point x="892.142" y="-20.422"/>
    </contour>
    <contour>
      <point x="662.006" y="102.878" type="qcurve" smooth="yes"/>
      <point x="764.8199999999999" y="102.878"/>
      <point x="856.98" y="232.802"/>
      <point x="856.98" y="332.996" type="qcurve" smooth="yes"/>
      <point x="856.98" y="423.958"/>
      <point x="766.09" y="539.114"/>
      <point x="651.238" y="539.46" type="qcurve" smooth="yes"/>
      <point x="469.226" y="539.46" type="line"/>
      <point x="469.226" y="318.76" type="line" smooth="yes"/>
      <point x="469.226" y="210.3"/>
      <point x="560.808" y="102.878"/>
    </contour>
  </outline>
</glyph>
<glyph name="zero.lc" format="2">
  <advance width="1345"/>
  <outline>
    <contour>
      <point x="59.848" y="549.768" type="qcurve" smooth="yes"/>
      <point x="59.848" y="795.418"/>
      <point x="400.912" y="1122.92"/>
      <point x="677.44" y="1122.92" type="qcurve" smooth="yes"/>
      <point x="954.968" y="1122.92"/>
      <point x="1285.53" y="816.764"/>
      <point x="1285.53" y="556.768" type="qcurve" smooth="yes"/>
      <point x="1285.53" y="312.118"/>
      <point x="949.542" y="-23.73"/>
      <point x="673.014" y="-23.73" type="qcurve" smooth="yes"/>
      <point x="395.486" y="-23.73"/>
      <point x="59.848" y="287.118"/>
    </contour>
    <contour>
      <point x="362.26" y="569.692" type="qcurve" smooth="yes"/>
      <point x="362.606" y="343.118"/>
      <point x="531.39" y="100.764"/>
      <point x="671.516" y="100.764" type="qcurve" smooth="yes"/>
      <point x="822.912" y="100.764"/>
      <point x="983.772" y="334.852"/>
      <point x="983.772" y="554.692" type="qcurve" smooth="yes"/>
      <point x="983.772" y="758.916"/>
      <point x="818.566" y="988.62"/>
      <point x="677.44" y="988.62" type="qcurve" smooth="yes"/>
      <point x="524.39" y="988.62"/>
      <point x="361.914" y="780.224"/>
    </contour>
  </outline>
</glyph>
<glyph name="zero.tab" format="2">
  <advance width="1146"/>
  <outline>
    <contour>
      <point x="50.27" y="746.692" type="qcurve" smooth="yes"/>
      <point x="50.27" y="1106.224"/>
      <point x="348.904" y="1521.73"/>
      <point x="574.698" y="1521.73" type="qcurve" smooth="yes"/>
      <point x="804.8" y="1521.73"/>
      <point x="1096.088" y="1111.878"/>
      <point x="1096.088" y="757.46" type="qcurve" smooth="yes"/>
      <point x="1096.088" y="419.198"/>
      <point x="809.838" y="-23.384"/>
      <point x="579.39" y="-23.384" type="qcurve" smooth="yes"/>
      <point x="347.98" y="-23.384"/>
      <point x="50.27" y="390.004"/>
    </contour>
    <contour>
      <point x="347.374" y="770.616" type="qcurve" smooth="yes"/>
      <point x="348.374" y="443.632"/>
      <point x="465.424" y="97.92"/>
      <point x="573.006" y="97.92" type="qcurve" smooth="yes"/>
      <point x="686.512" y="97.92"/>
      <point x="797.984" y="411.708"/>
      <point x="798.984" y="748.076" type="qcurve" smooth="yes"/>
      <point x="800.638" y="1068.174"/>
      <point x="680.1659999999999" y="1384.81"/>
      <point x="574.968" y="1384.464" type="qcurve" smooth="yes"/>
      <point x="459.884" y="1384.118"/>
      <point x="346.72" y="1096.33"/>
    </contour>
  </outline>
</glyph>
